<?xml version="1.0" standalone="no"?>
<!DOCTYPE svg PUBLIC "-//W3C//DTD SVG 1.1//EN" "http://www.w3.org/Graphics/SVG/1.1/DTD/svg11.dtd" >
<svg xmlns="http://www.w3.org/2000/svg">
<metadata>Generated by IcoMoon</metadata>
<defs>
<font id="icomoon" horiz-adv-x="1024">
<font-face units-per-em="1024" ascent="960" descent="-64" />
<missing-glyph horiz-adv-x="1024" />
<glyph unicode="&#x20;" horiz-adv-x="512" d="" />
<glyph unicode="&#xe900;" glyph-name="application" d="M409.6 163.556h-156.444v597.333h452.267v-284.444c0-17.067 11.378-28.444 28.444-28.444s28.444 11.378 28.444 28.444v312.889c0 17.067-11.378 28.444-28.444 28.444h-509.156c-14.222 0-28.444-11.378-28.444-28.444v-654.222c0-17.067 11.378-28.444 28.444-28.444h184.889c17.067 0 28.444 11.378 28.444 28.444s-11.378 28.444-28.444 28.444zM605.867 664.178h-290.133c-17.067 0-28.444-11.378-28.444-28.444s11.378-28.444 28.444-28.444h290.133c17.067 0 28.444 11.378 28.444 28.444s-11.378 28.444-28.444 28.444zM634.311 482.133c0 17.067-11.378 28.444-28.444 28.444h-290.133c-17.067 0-28.444-11.378-28.444-28.444s11.378-28.444 28.444-28.444h290.133c17.067 0 28.444 11.378 28.444 28.444zM315.733 354.133c-17.067 0-28.444-11.378-28.444-28.444s11.378-28.444 28.444-28.444h199.111c17.067 0 28.444 11.378 28.444 28.444s-11.378 28.444-28.444 28.444h-199.111zM810.667 356.978l-76.8 76.8c-11.378 11.378-28.444 11.378-39.822 0l-36.978-36.978c-8.533-8.533-11.378-22.756-2.844-34.133-11.378 5.689-25.6 5.689-34.133-2.844l-153.6-153.6c-5.689-5.689-8.533-11.378-8.533-19.911v-79.644c0-17.067 11.378-28.444 28.444-28.444h76.8c8.533 0 14.222 2.844 19.911 8.533l153.6 153.6c5.689 5.689 8.533 11.378 8.533 19.911 0 5.689-2.844 8.533-2.844 14.222 5.689-2.844 8.533-5.689 14.222-5.689 8.533 0 14.222 2.844 19.911 8.533l36.978 36.978c8.533 11.378 8.533 31.289-2.844 42.667zM548.978 135.111h-36.978v36.978l125.156 125.156 36.978-36.978-125.156-125.156z" />
<glyph unicode="&#xe901;" glyph-name="check" d="M423.822 163.556h-159.289v603.022h457.956v-287.289c0-17.067 11.378-28.444 28.444-28.444s28.444 11.378 28.444 28.444v315.733c0 17.067-11.378 28.444-28.444 28.444h-514.844c-17.067 0-28.444-11.378-28.444-28.444v-659.911c0-17.067 11.378-28.444 28.444-28.444h187.733c17.067 0 28.444 11.378 28.444 28.444s-14.222 28.444-28.444 28.444zM622.933 669.867h-295.822c-17.067 0-28.444-11.378-28.444-28.444s11.378-28.444 28.444-28.444h292.978c17.067 0 28.444 11.378 28.444 28.444s-11.378 28.444-25.6 28.444zM651.378 484.978c0 17.067-11.378 28.444-28.444 28.444h-295.822c-17.067 0-28.444-11.378-28.444-28.444s11.378-28.444 28.444-28.444h292.978c17.067 0 31.289 11.378 31.289 28.444zM327.111 356.978c-17.067 0-28.444-11.378-28.444-28.444s11.378-28.444 28.444-28.444h201.956c17.067 0 28.444 11.378 28.444 28.444s-11.378 28.444-28.444 28.444h-201.956zM696.889 436.622c-65.422 0-119.467-54.044-119.467-119.467 0-22.756 5.689-42.667 17.067-62.578l-119.467-119.467c-11.378-11.378-11.378-28.444 0-39.822 2.844-8.533 11.378-11.378 17.067-11.378s14.222 2.844 19.911 8.533l119.467 119.467c17.067-11.378 39.822-17.067 62.578-17.067 65.422 0 119.467 54.044 119.467 119.467s-51.2 122.311-116.622 122.311zM696.889 251.733c-34.133 0-62.578 28.444-62.578 62.578s28.444 62.578 62.578 62.578 62.578-28.444 62.578-62.578c0-34.133-28.444-62.578-62.578-62.578z" />
<glyph unicode="&#xe902;" glyph-name="contract" d="M420.978 186.311h-145.067v560.356h423.822v-267.378c0-17.067 11.378-28.444 28.444-28.444s28.444 11.378 28.444 28.444v295.822c0 17.067-11.378 28.444-28.444 28.444h-480.711c-17.067 0-28.444-11.378-28.444-28.444v-617.244c0-17.067 11.378-28.444 28.444-28.444h173.511c17.067 0 28.444 11.378 28.444 28.444s-11.378 28.444-28.444 28.444zM608.711 658.489h-275.911c-17.067 0-28.444-11.378-28.444-28.444s11.378-28.444 28.444-28.444h275.911c17.067 0 28.444 11.378 28.444 28.444s-14.222 28.444-28.444 28.444zM637.156 484.978c0 17.067-11.378 28.444-28.444 28.444h-275.911c-17.067 0-28.444-11.378-28.444-28.444s11.378-28.444 28.444-28.444h275.911c14.222 0 28.444 11.378 28.444 28.444zM332.8 365.511c-17.067 0-28.444-11.378-28.444-28.444s11.378-28.444 28.444-28.444h187.733c17.067 0 28.444 11.378 28.444 28.444s-11.378 28.444-28.444 28.444h-187.733zM804.978 274.489l-108.089 17.067-48.356 96.711-45.511-96.711-108.089-17.067 76.8-73.956-17.067-108.089 93.867 51.2 96.711-51.2-17.067 108.089z" />
<glyph unicode="&#xe903;" glyph-name="home" d="M725.333 78.222h-136.533c-17.067 0-28.444 11.378-28.444 28.444v201.956h-99.556v-201.956c0-17.067-11.378-28.444-28.444-28.444h-136.533c-17.067 0-28.444 11.378-28.444 28.444v369.778h-51.2c-11.378 0-22.756 5.689-25.6 17.067-5.689 11.378-2.844 22.756 5.689 31.289l298.667 284.444c11.378 11.378 28.444 11.378 39.822 0l298.667-284.444c8.533-8.533 11.378-19.911 5.689-31.289s-17.067-17.067-28.444-17.067h-54.044v-369.778c-2.844-17.067-11.378-28.444-31.289-28.444zM620.089 135.111h79.644v369.778c0 17.067 11.378 28.444 28.444 28.444h11.378l-227.556 216.178-227.556-216.178h11.378c17.067 0 28.444-11.378 28.444-28.444v-369.778h79.644v201.956c0 17.067 11.378 28.444 28.444 28.444h159.289c17.067 0 28.444-11.378 28.444-28.444 0 0 0-201.956 0-201.956z" />
<glyph unicode="&#xe904;" glyph-name="detailInfo" d="M833.422 345.6c0 2.844 0 2.844 0 5.689v409.6c0 17.067-11.378 28.444-28.444 28.444h-509.156c-17.067 0-28.444-11.378-28.444-28.444v-108.089h-45.511c-17.067 0-28.444-11.378-28.444-28.444s11.378-28.444 28.444-28.444h48.356v-119.467h-48.356c-17.067 0-28.444-11.378-28.444-28.444s11.378-28.444 28.444-28.444h48.356v-119.467h-48.356c-17.067 0-28.444-11.378-28.444-28.444s11.378-28.444 28.444-28.444h48.356v-108.089c0-17.067 11.378-28.444 28.444-28.444h290.133c2.844 0 5.689 0 8.533 2.844v0c2.844 0 5.689 2.844 8.533 5.689l219.022 219.022c2.844 2.844 2.844 5.689 5.689 5.689-2.844 2.844 2.844 2.844 2.844 5.689zM611.556 203.378v122.311h122.311l-122.311-122.311zM324.267 243.2h59.733c17.067 0 28.444 11.378 28.444 28.444s-11.378 28.444-28.444 28.444h-59.733v119.467h59.733c17.067 0 28.444 11.378 28.444 28.444s-11.378 28.444-28.444 28.444h-59.733v119.467h59.733c17.067 0 28.444 11.378 28.444 28.444s-11.378 28.444-28.444 28.444h-59.733v79.644h449.422v-349.867h-190.578c-17.067 0-28.444-11.378-28.444-28.444v-190.578h-230.4v79.644z" />
<glyph unicode="&#xe905;" glyph-name="idCardNo" d="M830.578 192h-637.156c-17.067 0-28.444 11.378-28.444 28.444v258.844h696.889v-258.844c-2.844-17.067-14.222-28.444-31.289-28.444zM859.022 561.778h-694.044v113.778c0 17.067 11.378 28.444 28.444 28.444h640c17.067 0 28.444-11.378 28.444-28.444v-113.778h-2.844z" />
<glyph unicode="&#xe906;" glyph-name="juxinliReport" d="M311.893 420.494c-22.756 0-48.356 8.533-65.422 25.6-36.978 36.978-36.978 93.867 0 130.844l65.422 65.422c34.133 34.133 93.867 34.133 130.844 0 36.978-36.978 36.978-93.867 0-130.844l-65.422-65.422c-19.911-14.222-42.667-25.6-65.422-25.6zM377.316 616.761c-8.533 0-17.067-2.844-25.6-11.378l-65.422-65.422c-14.222-14.222-14.222-36.978 0-48.356 14.222-14.222 36.978-14.222 48.356 0l65.422 65.422c14.222 14.222 14.222 36.978 0 48.356-5.689 8.533-14.222 11.378-22.756 11.378zM664.604 147.428c-68.267 0-145.067 31.289-207.644 93.867-102.4 102.4-125.156 247.467-48.356 324.267v0c76.8 76.8 221.867 54.044 324.267-48.356s125.156-247.467 48.356-324.267c-28.444-31.289-71.111-45.511-116.622-45.511zM451.271 528.583c-54.044-54.044-31.289-164.978 48.356-244.622s190.578-102.4 244.622-48.356c54.044 54.044 31.289 164.978-48.356 244.622-82.489 79.644-190.578 99.556-244.622 48.356v0zM331.804 594.005c-8.533 0-17.067 2.844-22.756 11.378l-48.356 65.422h-88.178c-17.067 0-28.444 11.378-28.444 28.444s11.378 28.444 28.444 28.444h102.4c8.533 0 17.067-5.689 22.756-11.378l56.889-79.644c8.533-11.378 5.689-31.289-5.689-39.822-5.689 2.844-11.378-2.844-17.067-2.844zM511.004 431.872c-8.533 0-14.222 2.844-19.911 8.533-11.378 11.378-11.378 28.444 0 39.822l102.4 102.4c11.378 11.378 28.444 11.378 39.822 0s11.378-28.444 0-39.822l-102.4-102.4c-5.689-8.533-14.222-8.533-19.911-8.533zM661.76 278.272c-8.533 0-14.222 2.844-19.911 8.533-11.378 11.378-11.378 28.444 0 39.822l102.4 102.4c11.378 11.378 28.444 11.378 39.822 0s11.378-28.444 0-39.822l-102.4-102.4c-5.689-5.689-14.222-8.533-19.911-8.533zM562.204 323.783c-8.533 0-14.222 2.844-19.911 8.533-11.378 11.378-11.378 28.444 0 39.822l142.222 142.222c11.378 11.378 28.444 11.378 39.822 0s11.378-28.444 0-39.822l-142.222-142.222c-5.689-2.844-14.222-8.533-19.911-8.533zM693.049 542.805c-108.089 0-187.733 45.511-187.733 105.244s79.644 105.244 187.733 105.244 187.733-45.511 187.733-105.244-79.644-105.244-187.733-105.244zM693.049 690.716c-82.489 0-130.844-31.289-130.844-48.356s51.2-48.356 130.844-48.356 130.844 31.289 130.844 48.356-48.356 48.356-130.844 48.356z" />
<glyph unicode="&#xe907;" glyph-name="miguanReport" d="M685.511 641.422h-347.022c-17.067 0-28.444-11.378-28.444-28.444s11.378-28.444 28.444-28.444h347.022c17.067 0 28.444 11.378 28.444 28.444s-14.222 28.444-28.444 28.444zM685.511 482.133h-347.022c-17.067 0-28.444-11.378-28.444-28.444s11.378-28.444 28.444-28.444h347.022c17.067 0 28.444 11.378 28.444 28.444s-14.222 28.444-28.444 28.444zM685.511 311.467h-347.022c-17.067 0-28.444-11.378-28.444-28.444s11.378-28.444 28.444-28.444h347.022c17.067 0 28.444 11.378 28.444 28.444s-14.222 28.444-28.444 28.444zM816.356 448c0 19.911-5.689 42.667-14.222 59.733v88.178c19.911 36.978 19.911 82.489 0 122.311v42.667c0 17.067-11.378 28.444-28.444 28.444h-523.378c-17.067 0-28.444-11.378-28.444-28.444v-42.667c-19.911-36.978-19.911-82.489 0-122.311v-88.178c-19.911-36.978-19.911-82.489 0-122.311v-88.178c-8.533-17.067-14.222-36.978-14.222-56.889s5.689-42.667 14.222-59.733v-45.511c0-17.067 11.378-28.444 28.444-28.444h523.378c17.067 0 28.444 11.378 28.444 28.444v42.667c8.533 19.911 14.222 39.822 14.222 59.733s-5.689 42.667-14.222 59.733v88.178c8.533 19.911 14.222 42.667 14.222 62.578zM748.089 277.333c5.689-11.378 11.378-25.6 11.378-39.822s-2.844-25.6-11.378-39.822c-2.844-5.689-2.844-8.533-2.844-14.222v-19.911h-466.489v22.756c0 5.689 0 11.378-2.844 14.222-8.533 11.378-11.378 25.6-11.378 39.822s2.844 25.6 11.378 39.822c2.844 5.689 2.844 8.533 2.844 14.222v102.4c0 5.689 0 11.378-2.844 14.222-14.222 22.756-14.222 54.044 0 76.8 2.844 5.689 2.844 8.533 2.844 14.222v102.4c0 5.689 0 11.378-2.844 14.222-14.222 22.756-14.222 54.044 0 76.8 2.844 2.844 2.844 8.533 2.844 14.222v22.756h466.489v-22.756c0-5.689 0-11.378 2.844-14.222 14.222-22.756 14.222-54.044 0-76.8-2.844-5.689-2.844-8.533-2.844-14.222v-102.4c0-5.689 0-11.378 2.844-14.222 5.689-11.378 11.378-25.6 11.378-39.822s-2.844-25.6-11.378-39.822c-2.844-5.689-2.844-8.533-2.844-14.222v-102.4c0-2.844 0-8.533 2.844-14.222z" />
<glyph unicode="&#xe908;" glyph-name="personInfo" d="M799.289 601.6h-45.511c-14.222 122.311-116.622 216.178-241.778 216.178s-230.4-93.867-241.778-216.178h-45.511c-17.067 0-28.444-11.378-28.444-28.444s11.378-28.444 28.444-28.444h45.511c5.689-45.511 22.756-88.178 51.2-122.311h-25.6c-17.067 0-28.444-11.378-28.444-28.444v-287.289c0-17.067 11.378-28.444 28.444-28.444h429.511c17.067 0 28.444 11.378 28.444 28.444v287.289c0 17.067-11.378 28.444-28.444 28.444h-25.6c28.444 34.133 45.511 76.8 51.2 122.311h45.511c17.067 0 28.444 11.378 28.444 28.444s-11.378 28.444-25.6 28.444zM512 760.889c93.867 0 170.667-68.267 184.889-159.289h-369.778c11.378 91.022 91.022 159.289 184.889 159.289zM696.889 135.111h-372.622v230.4h71.111c11.378 0 22.756 8.533 28.444 19.911s0 25.6-11.378 31.289c-45.511 28.444-73.956 76.8-82.489 128h369.778c-8.533-51.2-36.978-99.556-82.489-128-11.378-5.689-14.222-19.911-11.378-31.289s14.222-19.911 28.444-19.911h71.111v-230.4h-8.533zM358.4 300.089c0-17.067 11.378-28.444 28.444-28.444h250.311c17.067 0 28.444 11.378 28.444 28.444s-11.378 28.444-28.444 28.444h-250.311c-17.067 0-28.444-11.378-28.444-28.444zM600.178 223.289h-179.2c-17.067 0-28.444-11.378-28.444-28.444s11.378-28.444 28.444-28.444h179.2c17.067 0 28.444 11.378 28.444 28.444s-11.378 28.444-28.444 28.444z" />
<glyph unicode="&#xe909;" glyph-name="zhifubaoReport" d="M733.867 132.267l-182.044 182.044 139.378 139.378c2.844 2.844 5.689 5.689 5.689 8.533 2.844 5.689 2.844 14.222 0 22.756-2.844 5.689-8.533 11.378-14.222 14.222-2.844 2.844-8.533 2.844-11.378 2.844h-130.844v105.244h164.978c17.067 0 28.444 11.378 28.444 28.444s-11.378 28.444-28.444 28.444h-164.978v130.844c0 17.067-11.378 28.444-28.444 28.444s-28.444-11.378-28.444-28.444v-130.844h-162.133c-17.067 0-28.444-11.378-28.444-28.444s11.378-28.444 28.444-28.444h164.978v-102.4h-133.689c-2.844 0-8.533 0-11.378-2.844-5.689-2.844-11.378-8.533-14.222-14.222s-2.844-14.222 0-22.756c0-5.689 2.844-8.533 5.689-11.378l139.378-139.378-182.044-182.044c-11.378-11.378-11.378-28.444 0-39.822 5.689-5.689 14.222-8.533 19.911-8.533s14.222 2.844 19.911 8.533l182.044 182.044 182.044-182.044c5.689-5.689 14.222-8.533 19.911-8.533s14.222 2.844 19.911 8.533c11.378 11.378 11.378 28.444 0 39.822zM420.978 445.156h182.044l-91.022-91.022-91.022 91.022z" />
<glyph unicode="&#xe90a;" glyph-name="authentication" d="M824.889 721.067h-625.778c-17.067 0-28.444-11.378-28.444-28.444v-486.4c0-17.067 11.378-28.444 28.444-28.444h625.778c17.067 0 28.444 11.378 28.444 28.444v486.4c0 17.067-11.378 28.444-28.444 28.444zM796.444 664.178v-105.244h-568.889v105.244h568.889zM227.556 234.667v267.378h568.889v-267.378c0 0-568.889 0-568.889 0zM463.644 382.578h-150.756c-17.067 0-28.444-11.378-28.444-28.444s11.378-28.444 28.444-28.444h150.756c17.067 0 28.444 11.378 28.444 28.444 0 14.222-14.222 28.444-28.444 28.444zM620.089 382.578h-73.956c-17.067 0-28.444-11.378-28.444-28.444s11.378-28.444 28.444-28.444h73.956c17.067 0 28.444 11.378 28.444 28.444 0 14.222-14.222 28.444-28.444 28.444z" />
<glyph unicode="&#xe90b;" glyph-name="borrowInfo" d="M824.889 490.667c17.067 0 28.444 11.378 28.444 28.444v167.822c0 17.067-11.378 28.444-28.444 28.444h-625.778c-17.067 0-28.444-11.378-28.444-28.444v-167.822c0-17.067 11.378-28.444 28.444-28.444 22.756 0 42.667-19.911 42.667-42.667s-19.911-42.667-42.667-42.667c-17.067 0-28.444-11.378-28.444-28.444v-167.822c0-17.067 11.378-28.444 28.444-28.444h625.778c17.067 0 28.444 11.378 28.444 28.444v167.822c0 17.067-11.378 28.444-28.444 28.444-22.756 0-42.667 19.911-42.667 42.667s19.911 42.667 42.667 42.667zM796.444 348.444v-116.622h-568.889v116.622c42.667 11.378 71.111 51.2 71.111 96.711s-28.444 85.333-71.111 96.711v116.622h568.889v-116.622c-42.667-11.378-71.111-51.2-71.111-96.711s28.444-82.489 71.111-96.711zM645.689 581.689h-267.378c-17.067 0-28.444-11.378-28.444-28.444s11.378-28.444 28.444-28.444h267.378c17.067 0 28.444 11.378 28.444 28.444s-14.222 28.444-28.444 28.444zM645.689 482.133h-267.378c-17.067 0-28.444-11.378-28.444-28.444s11.378-28.444 28.444-28.444h267.378c17.067 0 28.444 11.378 28.444 28.444s-14.222 28.444-28.444 28.444zM583.111 379.733h-204.8c-17.067 0-28.444-11.378-28.444-28.444s11.378-28.444 28.444-28.444h204.8c17.067 0 28.444 11.378 28.444 28.444s-11.378 28.444-28.444 28.444z" />
<glyph unicode="&#xe90c;" glyph-name="complete" d="M452.267 308.622l-122.311 119.467 39.822 39.822 79.644-79.644 204.8 199.111 39.822-39.822-241.778-238.933z" />
<glyph unicode="&#xe90d;" glyph-name="uncompleted" d="M512 408.178l-99.556-102.4-39.822 39.822 99.556 102.4-99.556 99.556 39.822 39.822 99.556-99.556 99.556 99.556 39.822-39.822-99.556-99.556 99.556-99.556-39.822-42.667-99.556 102.4z" />
<glyph unicode="&#xe90e;" glyph-name="arrowDown" d="M392.533 507.733l122.311-116.622 116.622 116.622h-238.933z" />
<glyph unicode="&#xe90f;" glyph-name="arrowRight" d="M415.289 237.511l-19.911 19.911 193.422 190.578-193.422 190.578 19.911 19.911 213.333-210.489z" />
<glyph unicode="&#xe910;" glyph-name="arrowUp" d="M631.467 388.267l-122.311 119.467-116.622-119.467h238.933z" />
<glyph unicode="&#xe911;" glyph-name="afterLoan" d="M403.883 123.733h-182.044c-17.067 0-28.444 11.378-28.444 28.444v637.156c0 17.067 11.378 28.444 28.444 28.444h494.933c17.067 0 28.444-11.378 28.444-28.444v-304.356c0-17.067-11.378-28.444-28.444-28.444s-28.444 11.378-28.444 28.444v275.911h-438.044v-580.267h153.6c17.067 0 28.444-11.378 28.444-28.444s-11.378-28.444-28.444-28.444zM594.46 612.978h-281.6c-17.067 0-28.444 11.378-28.444 28.444s11.378 28.444 28.444 28.444h281.6c17.067 0 28.444-11.378 28.444-28.444s-11.378-28.444-28.444-28.444zM594.46 462.222h-281.6c-17.067 0-28.444 11.378-28.444 28.444s11.378 28.444 28.444 28.444h281.6c17.067 0 28.444-11.378 28.444-28.444s-11.378-28.444-28.444-28.444zM506.283 311.467h-193.422c-17.067 0-28.444 11.378-28.444 28.444s11.378 28.444 28.444 28.444h193.422c17.067 0 28.444-11.378 28.444-28.444s-11.378-28.444-28.444-28.444zM670.208 154.396c-71.111 0-130.844 59.733-130.844 130.844s59.733 130.844 130.844 130.844c71.111 0 130.844-59.733 130.844-130.844s-59.733-130.844-130.844-130.844zM670.208 359.196c-39.822 0-73.956-34.133-73.956-73.956s34.133-73.956 73.956-73.956 73.956 34.133 73.956 73.956-34.133 73.956-73.956 73.956zM619.008 77.596c-8.533 0-17.067 2.844-22.756 11.378l-19.911 25.6-31.289 2.844c-8.533 0-19.911 5.689-22.756 14.222s-5.689 19.911 0 28.444l39.822 71.111c8.533 14.222 25.6 19.911 39.822 11.378s19.911-25.6 11.378-39.822l-17.067-31.289c8.533 0 17.067-5.689 19.911-11.378l2.844-2.844 19.911 34.133c8.533 14.222 25.6 19.911 39.822 11.378s19.911-25.6 11.378-39.822l-39.822-73.956c-11.378-5.689-19.911-11.378-31.289-11.378 2.844 0 0 0 0 0zM729.941 77.596c0 0-2.844 0 0 0-11.378 0-19.911 5.689-25.6 14.222l-39.822 73.956c-8.533 14.222-2.844 31.289 11.378 39.822s31.289 2.844 39.822-11.378l19.911-34.133 2.844 2.844c5.689 5.689 11.378 11.378 19.911 11.378l-19.911 31.289c-8.533 14.222-2.844 31.289 8.533 39.822s31.289 2.844 39.822-8.533l42.667-71.111c5.689-8.533 5.689-19.911 0-28.444s-14.222-14.222-22.756-14.222l-31.289-2.844-19.911-25.6c-8.533-14.222-17.067-17.067-25.6-17.067z" />
<glyph unicode="&#xe912;" glyph-name="staff" d="M657.778 214.869c-65.422 0-119.467 54.044-119.467 119.467s54.044 119.467 119.467 119.467 119.467-54.044 119.467-119.467-54.044-119.467-119.467-119.467zM657.778 396.914c-34.133 0-62.578-28.444-62.578-62.578s28.444-62.578 62.578-62.578 62.578 28.444 62.578 62.578-28.444 62.578-62.578 62.578zM825.6 78.336h-341.333c-17.067 0-28.444 11.378-28.444 28.444 0 62.578 51.2 113.778 113.778 113.778h173.511c31.289 0 59.733-11.378 82.489-34.133 19.911-22.756 31.289-51.2 28.444-79.644 0-17.067-14.222-28.444-28.444-28.444zM521.244 135.225h270.222c-2.844 2.844-5.689 8.533-8.533 11.378-11.378 11.378-25.6 17.067-39.822 17.067h-173.511c-19.911 0-39.822-11.378-48.356-28.444zM381.127 106.667h-184.889c-17.067 0-28.444 11.378-28.444 28.444v654.222c0 17.067 11.378 28.444 28.444 28.444h509.156c17.067 0 28.444-11.378 28.444-28.444v-312.889c0-17.067-11.378-28.444-28.444-28.444s-28.444 11.378-28.444 28.444v284.444h-452.267v-597.333h156.444c17.067 0 28.444-11.378 28.444-28.444s-11.378-28.444-28.444-28.444zM577.394 607.289h-290.133c-17.067 0-28.444 11.378-28.444 28.444s11.378 28.444 28.444 28.444h290.133c17.067 0 28.444-11.378 28.444-28.444s-11.378-28.444-28.444-28.444zM577.394 453.689h-290.133c-17.067 0-28.444 11.378-28.444 28.444s11.378 28.444 28.444 28.444h290.133c17.067 0 28.444-11.378 28.444-28.444s-11.378-28.444-28.444-28.444zM486.372 297.244h-199.111c-17.067 0-28.444 11.378-28.444 28.444s11.378 28.444 28.444 28.444h199.111c17.067 0 28.444-11.378 28.444-28.444s-11.378-28.444-28.444-28.444z" />
<glyph unicode="&#xe913;" glyph-name="firstPage" d="M452.267 448l201.956 201.956 51.2-51.2-150.756-147.911 150.756-150.756-51.2-51.2-201.956 199.111zM395.378 234.667h-71.111v426.667h71.111v-426.667z" />
<glyph unicode="&#xe914;" glyph-name="lastPage" d="M573.326 448l-201.956-201.956-51.2 51.2 150.756 150.756-150.756 147.911 51.2 51.2 201.956-199.111zM630.215 661.333h71.111v-426.667h-71.111v426.667z" />
<glyph unicode="&#xe915;" glyph-name="nextPage" d="M645.689 448l-216.178-216.178-54.044 54.044 162.133 162.133-159.289 159.289 54.044 54.044 213.333-213.333z" />
<glyph unicode="&#xe916;" glyph-name="prevPage" d="M378.311 448l216.178 216.178 54.044-54.044-162.133-162.133 159.289-159.289-54.044-54.044-213.333 213.333z" />
<glyph unicode="&#xe917;" glyph-name="ABC" d="M472.178 900.267l19.911 2.844h42.667l19.911-2.844v-278.756l-5.689-5.689h-2.844l-2.844-2.844h-56.889l-5.689 2.844-2.844 2.844h-2.844v2.844l-2.844 2.844-2.844 8.533v267.378h2.844zM665.6 450.844v-136.533l-5.689-5.689v-2.844h-5.689l-2.844-2.844-8.533-2.844h-79.644v-213.333l34.133 5.689 14.222 5.689 14.222 2.844 17.067 5.689 14.222 5.689 56.889 34.133 11.378 8.533 14.222 8.533 25.6 19.911 11.378 11.378 8.533 11.378 11.378 14.222 8.533 11.378 42.667 71.111 5.689 14.222 8.533 31.289 5.689 14.222 2.844 17.067 2.844 14.222 2.844 17.067 2.844 34.133-2.844 25.6-2.844 14.222v14.222l-5.689 25.6-8.533 25.6-2.844 11.378-2.844 17.067-8.533 25.6-14.222 22.756-11.378 22.756-14.222 19.911-34.133 39.822-19.911 17.067-39.822 28.444-22.756 14.222-22.756 11.378v-312.889l-11.378-11.378h-2.844l-8.533-2.844h-113.778l-5.689-5.689v130.844l8.533 8.533h51.2l8.533 2.844 5.689 2.844 2.844 2.844 2.844 5.689v292.978l36.978-11.378 19.911-5.689 22.756-5.689 19.911-8.533 17.067-8.533 28.444-17.067 19.911-14.222 14.222-8.533 14.222-11.378 68.267-68.267 22.756-28.444 8.533-17.067 8.533-14.222 19.911-34.133 8.533-17.067 5.689-19.911 11.378-36.978 5.689-19.911 8.533-59.733v-62.578l-2.844-45.511-2.844-22.756-11.378-45.511-34.133-79.644-22.756-39.822-42.667-51.2-28.444-28.444-34.133-25.6-17.067-14.222-39.822-22.756-17.067-11.378-39.822-17.067-22.756-8.533-22.756-5.689-19.911-5.689-68.267-8.533h-25.6l-113.778 14.222-19.911 5.689-22.756 8.533-59.733 25.6-39.822 22.756-17.067 14.222-34.133 25.6-28.444 28.444-28.444 34.133-11.378 17.067-11.378 19.911-11.378 22.756-17.067 39.822-11.378 19.911-8.533 19.911-5.689 22.756-5.689 19.911-5.689 45.511-2.844 25.6v42.667l8.533 59.733 8.533 36.978 11.378 36.978 8.533 19.911 25.6 51.2 8.533 14.222 11.378 17.067 22.756 28.444 8.533 17.067 14.222 14.222 28.444 25.6 62.578 45.511 14.222 11.378 51.2 25.6 17.067 5.689 59.733 17.067v-290.133l5.689-5.689 17.067-8.533h51.2l5.689-5.689v-136.533l-2.844 2.844h-113.778l-8.533 2.844h-2.844l-8.533 8.533v2.844l-2.844 5.689v310.044l-22.756-11.378-19.911-14.222-42.667-31.289-19.911-17.067-17.067-17.067-28.444-42.667-14.222-19.911-11.378-22.756-5.689-14.222-5.689-11.378-8.533-25.6-11.378-51.2-2.844-14.222v-56.889l2.844-17.067 2.844-14.222 2.844-17.067v-19.911l2.844-14.222 5.689-14.222 5.689-17.067 11.378-31.289 14.222-28.444 19.911-25.6 11.378-11.378 8.533-14.222 22.756-22.756 25.6-19.911 28.444-17.067 25.6-14.222 28.444-17.067 28.444-11.378 17.067-2.844 14.222-5.689 14.222-2.844 17.067-2.844v213.333h-79.644l-8.533 2.844h-2.844l-5.689 5.689v2.844l-2.844 5.689v130.844l5.689-5.689 17.067-8.533h108.089l5.689-5.689v-130.844h28.444v125.156l8.533 8.533h108.089l17.067 8.533 8.533 8.533z" />
<glyph unicode="&#xe918;" glyph-name="BCOM" d="M770.844 220.444c-54.044-2.844-102.4-2.844-153.6-5.689-34.133-145.067-310.044-105.244-278.756 76.8 14.222 108.089 159.289 156.444 250.311 73.956 19.911-22.756 28.444-42.667 36.978-88.178 45.511 2.844 105.244 2.844 147.911 5.689 2.844 233.244-258.844 349.867-455.111 238.933-187.733-108.089-164.978-438.044 31.289-523.378v-5.689c-108.089 2.844-224.711 85.333-250.311 184.889v537.6c85.333 59.733 179.2 128 264.533 187.733 2.844-2.844 5.689-2.844 11.378-5.689-5.689-79.644-2.844-213.333 2.844-312.889 54.044 51.2 88.178 108.089 182.044 125.156 59.733 11.378 116.622 5.689 150.756-8.533 267.378-93.867 284.444-446.578 56.889-566.044-5.689 0-17.067-11.378-25.6-11.378 0 2.844 5.689 8.533 8.533 17.067 8.533 28.444 14.222 54.044 19.911 79.644z" />
<glyph unicode="&#xe919;" glyph-name="BOB" d="M950.044 322.844l11.378 56.889v136.533l-8.533 34.133v11.378l-11.378 45.511-2.844 5.689-2.844 11.378-11.378 22.756-11.378 17.067-2.844 8.533-39.822 59.733-54.044 54.044-17.067 14.222-8.533 8.533-42.667 28.444-14.222 8.533-25.6 17.067-11.378 5.689-34.133 8.533-8.533 2.844-79.644 19.911h-136.533l-34.133-8.533-5.689-2.844-45.511-11.378-5.689-2.844-22.756-5.689-11.378-5.689-17.067-11.378-5.689-5.689-11.378-5.689-17.067-11.378-11.378-8.533-17.067-11.378-17.067-17.067-8.533-5.689-34.133-34.133-5.689-8.533-17.067-17.067-17.067-25.6-8.533-11.378-28.444-42.667-11.378-22.756v-11.378l-11.378-45.511-2.844-5.689-11.378-45.511v-56.889l-2.844-11.378v-68.267l17.067-68.267 5.689-5.689 2.844-11.378 2.844-8.533 2.844-11.378 11.378-22.756 11.378-17.067 2.844-8.533 34.133-51.2 25.6-25.6 8.533-14.222 51.2-51.2 76.8-51.2 22.756-11.378 125.156-31.289h105.244l17.067 2.844 56.889 11.378 85.333 34.133 28.444 17.067 51.2 34.133 45.511 45.511 25.6 51.2v73.956l-5.689 17.067-11.378 22.756v5.689l-14.222 28.444h-8.533l-8.533 8.533-22.756 11.378-2.844 8.533-22.756 11.378-8.533 5.689-5.689 2.844-17.067 5.689-5.689 2.844-17.067 5.689-19.911 8.533 17.067 8.533 22.756 22.756 19.911 39.822v54.044l-2.844 8.533-2.844 5.689-2.844 8.533-5.689 11.378-34.133 34.133-17.067 11.378-5.689 8.533-42.667 28.444h-11.378l-34.133 8.533-5.689 2.844-34.133 8.533-28.444 5.689h-213.333v-142.222l28.444 5.689h170.667l28.444-5.689 34.133-8.533 34.133-11.378 5.689-2.844 28.444-28.444v-28.444l-5.689-11.378-8.533-8.533-5.689-2.844-2.844-2.844h-48.356l-34.133 5.689h-184.889l-28.444-5.689v-145.067l59.733 8.533h145.067l51.2-8.533 28.444-5.689 34.133-8.533 25.6-8.533 11.378-11.378-5.689 2.844 22.756-22.756 2.844-5.689v-45.511l-2.844-2.844-2.844-5.689-11.378-2.844-25.6-25.6h-11.378l-39.822-19.911h-17.067l-11.378-2.844-14.222-2.844h-128l-42.667 14.222-2.844 5.689-8.533 2.844h-5.689l-34.133 11.378-11.378 5.689-5.689 11.378-11.378 11.378-8.533 2.844-11.378 11.378-8.533 2.844-48.356 48.356-2.844 8.533-11.378 11.378-2.844 8.533-5.689 5.689-2.844 8.533-2.844 5.689-8.533 14.222-2.844 8.533-5.689 8.533-2.844 8.533-2.844 5.689-17.067 51.2v136.533l14.222 42.667 2.844-2.844 2.844 8.533 2.844 5.689 14.222 42.667 2.844 5.689 11.378 2.844 11.378 11.378 2.844 8.533 11.378 11.378 2.844 8.533 48.356 48.356 8.533 2.844 11.378 11.378 22.756 11.378 17.067 5.689 5.689 5.689 8.533 2.844 5.689 5.689 8.533 2.844 5.689 2.844 51.2 17.067h136.533l42.667-14.222-2.844-2.844 51.2-17.067 5.689-2.844 8.533-2.844v-11.378l11.378-11.378 8.533-2.844 11.378-11.378 8.533-2.844 68.267-68.267 5.689-11.378 2.844-8.533 2.844-5.689 31.289-93.867v-68.267l-2.844-36.978 8.533-5.689 8.533-2.844 8.533-5.689 68.267-68.267 17.067-5.689z" />
<glyph unicode="&#xe91a;" glyph-name="BOC" d="M508.554 874.274v0c-198.34 6.317-320.332-144.058-320.332-144.058-83.404-99.739-92.838-191.549-92.838-191.549-37.011-154.326 40.113-287.31 40.113-287.31 57.455-104.495 118.063-152.766 216.432-198.671 98.395-45.905 247.912-39.589 340.776 7.122 92.864 46.685 149.518 98.153 201.468 195.5s44.067 211.33 44.067 211.33c-5.505 151.18-99.144 254.090-99.144 254.090-144.814 169.376-330.541 153.546-330.541 153.546zM554.973 779.266c0 0 98.395-7.902 177.87-81.517 79.476-73.589 99.946-147.203 108.604-186.792 8.658-39.563 14.939-152.74-47.996-249.307-62.986-96.567-182.6-140.913-238.479-145.644v155.131h73.996c0 0 78.7 15.83 83.404 98.153v165.425c0 0-12.587 83.102-99.946 87.054h-57.455v157.497zM468.415 779.292v-157.523h-66.113c0 0-89.736-5.537-92.864-105.249v-145.67c0 0 2.352-89.419 95.216-99.713h63.761v-155.131c0 0-155.85 8.708-241.606 159.083 0 0-73.996 106.081-43.292 238.234 30.679 132.205 102.297 185.232 116.487 198.697 14.138 13.439 105.838 68.286 168.411 67.272v0zM410.96 532.325h194.386c0 0 16.515 3.171 18.092-15.024v-135.35c0 0 3.954-21.367-11.812-18.222h-196.738c0 0-15.714-3.951-18.092 14.245v139.327c0 0 2.352 15.024 14.163 15.024v0z" />
<glyph unicode="&#xe91b;" glyph-name="CCB" d="M480.711 857.6c0 0 76.8 59.733 210.489 17.067 0 0 45.511-17.067 96.711-62.578l159.289-167.822-85.333-85.333-244.622 247.467c0 0-42.667 48.356-136.533 51.2v0zM830.578 527.644l-99.556-96.711c0 0-17.067-22.756-28.444 0l-184.889 179.2c0 0-17.067 22.756-28.444 2.844l-184.889-190.578c0 0-11.378-19.911 2.844-28.444l182.044-182.044c0 0 14.222-25.6 28.444-5.689l187.733 190.578c0 0 5.689 17.067 34.133 11.378h193.422c0 0 8.533-196.267-142.222-318.578 0 0-193.422-193.422-457.956-73.956 0 0-256 88.178-253.156 420.978 0 0 5.689 221.867 207.644 341.333 0 0 147.911 110.933 264.533 28.444l278.756-278.756z" />
<glyph unicode="&#xe91c;" glyph-name="CEB" d="M173.511 903.111h455.111c0 0 85.333 0 102.4-25.6h-85.333v-25.6l128-2.844c0 0 19.911-14.222 19.911-25.6l-150.756-2.844v-25.6h167.822c0 0 19.911-11.378 14.222-31.289h-514.844v-28.444l526.222 2.844c0 0 2.844-22.756 2.844-28.444h-529.067v-28.444l531.911 2.844c0 0 2.844-17.067-5.689-28.444l-526.222-5.689v-25.6l517.689 2.844c0 0 0-22.756-14.222-28.444l-506.311-2.844v-25.6l489.244 2.844c0 0-2.844-25.6-19.911-31.289l-469.333-2.844v-25.6l432.356 5.689c0 0-8.533-34.133-76.8-28.444l-79.644 2.844v-25.6l130.844-2.844c0 0 54.044 0 62.578-22.756l-193.422-5.689v-25.6h227.556c0 0 19.911-17.067 19.911-25.6l-523.378-2.844v-31.289l534.756 5.689c0 0 19.911-14.222 19.911-31.289l-554.667-2.844v-25.6h563.2c0 0 5.689-8.533 2.844-22.756l-566.044-5.689v-25.6h566.044c0 0 5.689-14.222 0-25.6l-566.044-2.844v-25.6h563.2c0 0 5.689-17.067-8.533-31.289h-551.822v-25.6l543.289 2.844c0 0-2.844-25.6-14.222-28.444h-193.422v-28.444l167.822 2.844c0 0-11.378-25.6-22.756-31.289l-145.067-2.844v-28.444l96.711 2.844c0 0-14.222-31.289-142.222-25.6l-426.667 2.844v904.533z" />
<glyph unicode="&#xe91d;" glyph-name="CIB" d="M967.111 436.622c0 113.778-159.289 207.644-352.711 207.644-156.444 0-287.289-59.733-335.644-142.222v0c-5.689-8.533-5.689-17.067-5.689-25.6 0-19.911 14.222-39.822 34.133-51.2l179.2-102.4c8.533-5.689 19.911-8.533 31.289-8.533s22.756 2.844 31.289 8.533l170.667 96.711c11.378 5.689 19.911 17.067 19.911 28.444s-5.689 19.911-17.067 28.444l-62.578 36.978-139.378-79.644-105.244 59.733c39.822 36.978 116.622 59.733 204.8 59.733 130.844 0 236.089-54.044 236.089-122.311-2.844-105.244-159.289-184.889-347.022-179.2s-338.489 93.867-335.644 196.267v0c0 136.533 184.889 247.467 409.6 244.622 19.911 0 39.822 0 59.733-2.844-45.511 17.067-102.4 25.6-164.978 25.6-51.2 0-96.711-5.689-136.533-17.067-170.667-42.667-284.444-142.222-284.444-261.689 0-159.289 204.8-287.289 455.111-287.289s455.111 128 455.111 287.289v0z" />
<glyph unicode="&#xe91e;" glyph-name="CMB" d="M475.022 263.111l122.311 312.889 128-312.889h-250.311zM216.178 263.111l122.311 312.889 128-312.889h-250.311zM856.178 334.222h96.711l-5.689-17.067h-82.489l-8.533 17.067zM839.111 379.733h122.311l-2.844-19.911h-110.933l-8.533 19.911zM819.2 422.4h147.911l-2.844-19.911h-136.533l-8.533 19.911zM802.133 467.911h164.978v-19.911h-159.289l-5.689 19.911zM782.222 510.578h179.2l2.844-19.911h-173.511l-8.533 19.911zM765.156 556.089h190.578l2.844-19.911h-184.889l-8.533 19.911zM512 903.111h19.911l19.911-2.844h19.911l17.067-2.844 19.911-2.844 17.067-2.844 34.133-11.378 8.533-5.689 8.533-2.844 17.067-8.533 17.067-5.689 14.222-8.533 34.133-17.067 42.667-34.133 11.378-8.533 14.222-11.378 25.6-25.6 11.378-14.222 11.378-17.067 11.378-14.222 17.067-28.444 25.6-51.2 17.067-51.2h-193.422l-119.467 281.6-125.156-315.733-130.844 312.889-233.244-597.333 105.244-130.844h537.6l99.556 142.222-8.533 22.756h59.733l-5.689-17.067-17.067-34.133-8.533-14.222-8.533-17.067-8.533-14.222-11.378-14.222-8.533-14.222-11.378-14.222-5.689-8.533-45.511-45.511-28.444-22.756-28.444-17.067-51.2-25.6-17.067-5.689-28.444-11.378-17.067-5.689-51.2-8.533h-17.067l-19.911-8.533h-59.733l-68.267 8.533-22.756 5.689-19.911 5.689-22.756 8.533-59.733 25.6-17.067 11.378-19.911 11.378-17.067 11.378-17.067 14.222-17.067 17.067-8.533 5.689-25.6 25.6-14.222 17.067-11.378 17.067-14.222 17.067-17.067 25.6-14.222 28.444-8.533 19.911-17.067 45.511-5.689 19.911-5.689 22.756-5.689 45.511v91.022l5.689 45.511 5.689 22.756 5.689 19.911 14.222 42.667 8.533 19.911 11.378 19.911 11.378 17.067 11.378 19.911 14.222 17.067 11.378 17.067 17.067 17.067 5.689 8.533 25.6 25.6 17.067 14.222 17.067 11.378 17.067 14.222 25.6 17.067 11.378 2.844 19.911 11.378 39.822 17.067 19.911 5.689 22.756 8.533 45.511 11.378 22.756 2.844h45.511z" />
<glyph unicode="&#xe91f;" glyph-name="CMBC" d="M432.356 308.622l76.8 45.511 5.689-2.844v51.2l-19.911 8.533c0 0-304.356-11.378-278.756 199.111 31.289 85.333 164.978 136.533 298.667 139.378v39.822c-162.133-2.844-392.533-48.356-435.2-196.267-2.844-5.689-2.844-11.378-2.844-14.222v-19.911c8.533-85.333 133.689-182.044 341.333-182.044l-110.933-65.422 199.111-99.556 14.222 5.689v51.2l-2.844-2.844-85.333 42.667zM517.689 749.511v39.822h2.844c150.756 5.689 449.422-51.2 446.578-219.022h-139.378c-19.911 128-164.978 182.044-310.044 179.2v0zM517.689 351.289l82.489-42.667-82.489-42.667v-51.2l210.489 102.4-210.489 85.333v-51.2zM509.156 132.267v-42.667h-2.844c-147.911-2.844-449.422 51.2-449.422 219.022h142.222c19.911-125.156 164.978-182.044 310.044-176.356v0zM509.156 524.8l-82.489 42.667 82.489 45.511v51.2l-207.644-102.4 210.489-88.178v51.2h-2.844zM594.489 567.467l-76.8-45.511h-5.689v-45.511l19.911-8.533c0 0 304.356 11.378 278.756-199.111-34.133-85.333-164.978-136.533-298.667-139.378v-42.667c164.978 5.689 395.378 48.356 438.044 196.267 2.844 5.689 2.844 8.533 2.844 14.222v19.911c-8.533 85.333-136.533 182.044-341.333 184.889l110.933 65.422-196.267 102.4-14.222-8.533v-45.511l82.489-48.356z" />
<glyph unicode="&#xe920;" glyph-name="GDB" d="M386.844 300.089c45.511 68.267 85.333 139.378 122.311 213.333 51.2 105.244 93.867 213.333 119.467 318.578h-241.778c-62.578-210.489-184.889-420.978-332.8-583.111v0c102.4 28.444 216.178 45.511 332.8 51.2v0zM628.622 832v0c-25.6-105.244-68.267-213.333-119.467-318.578 36.978-73.956 76.8-145.067 122.311-213.333 88.178-5.689 173.511-17.067 253.156-34.133-82.489 17.067-167.822 28.444-253.156 34.133-82.489 5.689-162.133 5.689-244.622 0 0 0 0 0 0 0-116.622-5.689-230.4-22.756-332.8-51.2l119.467-210.489c19.911 19.911 36.978 39.822 56.889 59.733l-2.844-5.689-22.756-22.756-5.689-8.533-5.689-5.689-2.844-5.689-11.378-11.378c213.333 48.356 455.111 48.356 668.444 0l119.467 210.489c-150.756 159.289-273.067 372.622-338.489 583.111zM258.844 126.578l-11.378-11.378-5.689-8.533-8.533-8.533c14.222 14.222 25.6 31.289 36.978 45.511-5.689-5.689-8.533-11.378-11.378-17.067v0zM329.956 220.444c-5.689-8.533-11.378-17.067-19.911-25.6 8.533 8.533 14.222 17.067 19.911 25.6z" />
<glyph unicode="&#xe921;" glyph-name="HXB" d="M935.822 715.378l-31.289 42.667c0 0-125.156-19.911-125.156 51.2 0 0 8.533 54.044-82.489 31.289 0 0-22.756 19.911-19.911 31.289 0 0 5.689 31.289-93.867 14.222 0 0-147.911-17.067-307.2-204.8 0 0-162.133-133.689-162.133 2.844 0 0-88.178-91.022-42.667-164.978 0 0 54.044-76.8 156.444-14.222 0 0-31.289-253.156 133.689-386.844 0 0 173.511-162.133 372.622-105.244 0 0 164.978 34.133 230.4 204.8 0 0-28.444-31.289-42.667-28.444 0 0 45.511 54.044 48.356 79.644 0 0 0 31.289-28.444-17.067 0 0 5.689 31.289-11.378 17.067 0 0-88.178-102.4-125.156-108.089 0 0-275.911-164.978-403.911 167.822 0 0-54.044 159.289 73.956 275.911 128 119.467 253.156 108.089 366.933 19.911 0 0 56.889 65.422 82.489 54.044 0 2.844 22.756 17.067 11.378 36.978z" />
<glyph unicode="&#xe922;" glyph-name="ICBC" d="M147.911 445.156l2.844-36.978 2.844-34.133 8.533-36.978 11.378-31.289 14.222-34.133 19.911-28.444 8.533-14.222 11.378-11.378 22.756-28.444 56.889-45.511 31.289-19.911 31.289-14.222 34.133-11.378 34.133-8.533 39.822-5.689h73.956l34.133 5.689 36.978 8.533 31.289 11.378 34.133 14.222 28.444 19.911 14.222 8.533 11.378 11.378 28.444 22.756 45.511 56.889 19.911 28.444 14.222 34.133 11.378 31.289 8.533 36.978 2.844 14.222 2.844 19.911v73.956l-5.689 36.978-8.533 34.133-14.222 36.978-14.222 31.289-28.444 45.511-11.378 11.378-22.756 25.6-28.444 25.6-28.444 22.756-28.444 19.911-62.578 22.756-36.978 8.533-17.067 5.689h-19.911l-19.911 2.844h-19.911l-73.956-5.689-34.133-8.533-62.578-28.444-31.289-19.911-14.222-8.533-11.378-11.378-28.444-25.6-22.756-25.6-22.756-28.444-19.911-31.289-14.222-28.444-11.378-34.133-8.533-34.133-2.844-19.911v-19.911l-2.844-19.911v-17.067zM56.889 445.156l2.844 45.511 2.844 25.6 2.844 22.756 19.911 65.422 8.533 19.911 8.533 22.756 11.378 17.067 22.756 36.978 11.378 19.911 14.222 19.911 28.444 31.289 14.222 14.222 14.222 11.378 19.911 14.222 39.822 22.756 17.067 11.378 39.822 19.911 39.822 14.222 22.756 8.533 22.756 5.689 22.756 2.844 25.6 2.844 45.511 2.844 45.511-2.844 45.511-5.689 42.667-11.378 19.911-8.533 22.756-8.533 19.911-8.533 17.067-11.378 39.822-19.911 14.222-11.378 19.911-14.222 31.289-28.444 28.444-28.444 11.378-19.911 25.6-36.978 8.533-19.911 22.756-39.822 14.222-39.822 2.844-22.756 5.689-22.756 2.844-22.756 2.844-25.6 2.844-45.511-2.844-45.511-5.689-42.667-8.533-42.667-5.689-25.6-5.689-22.756-8.533-19.911-14.222-17.067-19.911-39.822-11.378-14.222-11.378-19.911-59.733-59.733-19.911-11.378-19.911-17.067-19.911-11.378-19.911-8.533-36.978-22.756-42.667-14.222-22.756-8.533-68.267-8.533-42.667-2.844-45.511 2.844-25.6 2.844-22.756 2.844-42.667 8.533-22.756 11.378-19.911 5.689-22.756 8.533-17.067 14.222-36.978 22.756-39.822 22.756-45.511 45.511-11.378 14.222-14.222 19.911-14.222 17.067-11.378 19.911-8.533 19.911-19.911 36.978-14.222 42.667-8.533 22.756-5.689 22.756-5.689 42.667-2.844 45.511zM768 416.711v-201.956h-224.711v62.578h153.6v73.956h-153.6v201.956h153.6v68.267h-153.6v68.267h224.711v-201.956h-153.6v-68.267h153.6v-2.844zM256 416.711v-201.956h224.711v62.578h-153.6v73.956h153.6v201.956h-153.6v68.267h153.6v68.267h-224.711v-201.956h153.6v-68.267h-153.6v-2.844z" />
<glyph unicode="&#xe923;" glyph-name="PAB" d="M605.867 814.933c-8.533 14.222-19.911 19.911-34.133 19.911h-113.778c-14.222 0-25.6-8.533-34.133-19.911l-358.4-708.267c-11.378-22.756-2.844-36.978 19.911-36.978h113.778c17.067 0 22.756 2.844 31.289 19.911l284.444 568.889 284.444-568.889c8.533-17.067 14.222-19.911 31.289-19.911h113.778c19.911 0 31.289 14.222 19.911 36.978l-358.4 708.267zM628.622 291.556h-196.267c-11.378 0-17.067-8.533-17.067-17.067v-193.422c0-11.378 8.533-17.067 17.067-17.067h196.267c11.378 0 17.067 8.533 17.067 17.067v193.422c0 8.533-8.533 17.067-17.067 17.067z" />
<glyph unicode="&#xe924;" glyph-name="PSBC" d="M139.378 396.8l-5.689-25.6h130.844l5.689 25.6h-130.844zM475.022 371.2l5.689 25.6h-150.756l-5.689-25.6h150.756zM560.356 499.2l-19.911-102.4-28.444-128h-207.644l-5.689-22.756h244.622l31.289 153.6 19.911 102.4h292.978l-22.756-102.4h-233.244l-54.044-256h-298.667l-5.689-22.756h338.489l31.289 150.756 19.911 102.4h196.267l-19.911-102.4h-139.378l-31.289-150.756-22.756-102.4h-455.111l54.044 253.156h-187.733l51.2 230.4h187.733l54.044 253.156h207.644l25.6 128h384l-22.756-102.4h-327.111l-5.689-25.6-19.911-102.4h-207.644l-5.689-22.756h244.622l5.689 22.756 22.756 102.4h292.978l-22.756-102.4h-233.244l-25.6-128h-304.356l-5.689-22.756h207.644v-2.844z" />
<glyph unicode="&#xe925;" glyph-name="SHB" d="M526.222 516.267c116.622 0 219.022-8.533 307.2-25.6 54.044-11.378 96.711-22.756 130.844-36.978l-452.267 452.267-452.267-449.422c39.822 14.222 91.022 25.6 150.756 36.978 93.867 14.222 201.956 22.756 315.733 22.756zM512-4.267l452.267 452.267c-62.578 5.689-150.756 5.689-258.844-2.844-116.622-8.533-193.422-19.911-238.933-34.133-39.822-11.378-59.733-31.289-56.889-51.2 0-5.689 2.844-14.222 8.533-19.911l8.533-5.689c17.067-11.378 25.6-17.067 28.444-19.911 14.222-11.378 19.911-28.444 17.067-48.356-5.689-25.6-56.889-51.2-150.756-79.644l190.578-190.578z" />
<glyph unicode="&#xe926;" glyph-name="SPDB" d="M418.133 578.844c-85.333 162.133-301.511 139.378-347.022 0 0 0-5.689-45.511-11.378-91.022v-284.444l139.378-125.156v347.022c-2.844-2.844 11.378 164.978 219.022 153.6v0zM213.333 314.311c0 0 227.556-31.289 236.089 196.267-2.844 213.333 275.911 224.711 352.711 73.956 0 0-199.111-2.844-219.022-162.133 0 0 2.844-196.267-153.6-216.178 0-2.844-170.667-31.289-216.178 108.089v0zM605.867 317.156c85.333-162.133 295.822-136.533 344.178 2.844 0 0 14.222 31.289 17.067 91.022v284.444l-139.378 125.156v-347.022c0 0-14.222-167.822-221.867-156.444v0z" />
<glyph unicode="&#xe927;" glyph-name="ZSB" d="M463.644 516.267l82.489 85.333-213.333 204.8-82.489-85.333 213.333-204.8zM483.556 280.178l-79.644-82.489 65.422-62.578-14.222-14.222-258.844 247.467 14.222 14.222 68.267-65.422 79.644 82.489-216.178 207.644-79.644-82.489 82.489-79.644-88.178-91.022 378.311-361.244 88.178 91.022 82.489-79.644 79.644 82.489-201.956 193.422zM560.356 612.978l76.8 79.644-68.267 65.422 14.222 14.222 258.844-247.467-14.222-14.222-65.422 62.578-76.8-79.644 201.956-193.422 76.8 82.489-82.489 76.8 79.644 82.489-375.467 361.244-79.644-82.489-82.489 79.644-76.8-82.489 213.333-204.8zM369.778 416.711l82.489 85.333-213.333 204.8-82.489-85.333 213.333-204.8zM674.133 479.289l-82.489-85.333 201.956-193.422 82.489 85.333-201.956 193.422zM577.422 379.733l-82.489-85.333 201.956-193.422 82.489 85.333-201.956 193.422z" />
<glyph unicode="&#xe928;" glyph-name="financial" d="M383.972 135.111h-182.044c-17.067 0-28.444 11.378-28.444 28.444v637.156c0 17.067 11.378 28.444 28.444 28.444h494.933c17.067 0 28.444-11.378 28.444-28.444v-304.356c0-17.067-11.378-28.444-28.444-28.444s-28.444 11.378-28.444 28.444v275.911h-438.044v-580.267h153.6c17.067 0 28.444-11.378 28.444-28.444s-11.378-28.444-28.444-28.444zM574.549 624.356h-284.444c-17.067 0-28.444 11.378-28.444 28.444s11.378 28.444 28.444 28.444h284.444c17.067 0 28.444-11.378 28.444-28.444s-11.378-28.444-28.444-28.444zM574.549 470.756h-284.444c-17.067 0-28.444 11.378-28.444 28.444s11.378 28.444 28.444 28.444h284.444c17.067 0 28.444-11.378 28.444-28.444s-11.378-28.444-28.444-28.444zM486.372 320h-196.267c-17.067 0-28.444 11.378-28.444 28.444s11.378 28.444 28.444 28.444h196.267c17.067 0 28.444-11.378 28.444-28.444s-11.378-28.444-28.444-28.444zM668.444 374.044c-68.267 0-125.156-56.889-125.156-125.156s56.889-125.156 125.156-125.156 125.156 56.889 125.156 125.156-56.889 125.156-125.156 125.156zM668.444 430.933c99.556 0 182.044-82.489 182.044-182.044s-82.489-182.044-182.044-182.044-182.044 82.489-182.044 182.044 82.489 182.044 182.044 182.044zM673.593 226.674l-79.644 85.333 39.822 39.822 39.822-39.822 31.289 39.822 45.511-39.822zM585.415 275.029h170.667v-56.889h-170.667v56.889zM642.304 275.029h56.889v-133.689h-56.889v133.689z" />
<glyph unicode="&#xe929;" glyph-name="recharge" d="M386.816 149.333h-179.2c-17.067 0-28.444 11.378-28.444 28.444v640c0 17.067 11.378 28.444 28.444 28.444h494.933c17.067 0 28.444-11.378 28.444-28.444v-304.356c0-17.067-11.378-28.444-28.444-28.444s-28.444 11.378-28.444 28.444v275.911h-438.044v-583.111h150.756c17.067 0 28.444-11.378 28.444-28.444s-11.378-28.444-28.444-28.444zM577.394 638.578h-281.6c-17.067 0-28.444 11.378-28.444 28.444s11.378 28.444 28.444 28.444h281.6c17.067 0 28.444-11.378 28.444-28.444s-11.378-28.444-28.444-28.444zM577.394 487.822h-281.6c-17.067 0-28.444 11.378-28.444 28.444s11.378 28.444 28.444 28.444h281.6c17.067 0 28.444-11.378 28.444-28.444s-11.378-28.444-28.444-28.444zM489.216 337.067h-193.422c-17.067 0-28.444 11.378-28.444 28.444s11.378 28.444 28.444 28.444h193.422c17.067 0 28.444-11.378 28.444-28.444s-11.378-28.444-28.444-28.444zM817.067 319.403h-227.556c-17.067 0-28.444 11.378-28.444 28.444s11.378 28.444 28.444 28.444h227.556c17.067 0 28.444-11.378 28.444-28.444s-11.378-28.444-28.444-28.444zM646.4 262.514c-8.533 0-14.222 2.844-19.911 8.533l-56.889 56.889c-11.378 11.378-11.378 28.444 0 39.822s28.444 11.378 39.822 0l56.889-56.889c11.378-11.378 11.378-28.444 0-39.822-5.689-5.689-11.378-8.533-19.911-8.533zM589.511 319.403c-8.533 0-14.222 2.844-19.911 8.533-11.378 11.378-11.378 28.444 0 39.822l56.889 56.889c11.378 11.378 28.444 11.378 39.822 0s11.378-28.444 0-39.822l-56.889-56.889c-5.689-5.689-11.378-8.533-19.911-8.533zM761.572 118.67h-227.556c-17.067 0-28.444 11.378-28.444 28.444s11.378 28.444 28.444 28.444h227.556c17.067 0 28.444-11.378 28.444-28.444s-11.378-28.444-28.444-28.444zM761.572 118.67c-8.533 0-14.222 2.844-19.911 8.533l-56.889 56.889c-11.378 11.378-11.378 28.444 0 39.822s28.444 11.378 39.822 0l56.889-56.889c11.378-11.378 11.378-28.444 0-39.822-5.689-5.689-11.378-8.533-19.911-8.533zM704.683 61.781c-8.533 0-14.222 2.844-19.911 8.533-11.378 11.378-11.378 28.444 0 39.822l56.889 56.889c11.378 11.378 28.444 11.378 39.822 0s11.378-28.444 0-39.822l-56.889-56.889c-5.689-5.689-11.378-8.533-19.911-8.533z" />
<glyph unicode="&#xe92a;" glyph-name="loading" d="M523.378 149.333c22.756 0 45.511 2.844 65.422 8.533l42.667-73.956c5.689-11.378 19.911-14.222 28.444-8.533l99.556 56.889c11.378 5.689 14.222 19.911 8.533 28.444l-39.822 71.111c39.822 36.978 68.267 85.333 82.489 136.533h79.644c11.378 0 22.756 8.533 22.756 22.756v0 113.778c0 11.378-8.533 22.756-22.756 22.756v0h-79.644c-14.222 51.2-42.667 99.556-82.489 136.533l39.822 71.111c5.689 11.378 2.844 22.756-8.533 28.444l-99.556 56.889c-11.378 5.689-22.756 2.844-28.444-8.533l-42.667-73.956c-48.356 11.378-99.556 8.533-150.756-5.689l-45.511 79.644c-5.689 11.378-19.911 14.222-28.444 8.533l-99.556-56.889c-11.378-5.689-17.067-19.911-8.533-28.444l48.356-82.489c-31.289-34.133-56.889-76.8-68.267-122.311h-99.556c-14.222-2.844-22.756-11.378-22.756-25.6v0-113.778c0-11.378 8.533-22.756 22.756-22.756v0h99.556c11.378-45.511 36.978-88.178 68.267-122.311l-48.356-85.333c-5.689-11.378-2.844-22.756 8.533-28.444l99.556-56.889c11.378-5.689 22.756-2.844 28.444 8.533l45.511 79.644c28.444-11.378 56.889-14.222 85.333-14.222zM392.533 448c0 65.422 54.044 119.467 119.467 119.467s119.467-54.044 119.467-119.467-54.044-119.467-119.467-119.467v0c-65.422 0-119.467 54.044-119.467 119.467z" />
<glyph unicode="&#xe92b;" glyph-name="refresh" d="M864.711 638.578c-22.756 8.533-45.511 0-56.889-22.756l-31.289-68.267c-17.067 56.889-51.2 110.933-99.556 150.756-68.267 59.733-153.6 88.178-244.622 82.489-88.178-5.689-170.667-45.511-227.556-113.778-59.733-68.267-88.178-153.6-82.489-244.622 14.222-167.822 145.067-298.667 310.044-310.044 0 0 2.844 0 2.844 0 22.756 0 39.822 17.067 42.667 39.822 0 22.756-17.067 42.667-39.822 45.511-122.311 8.533-219.022 105.244-230.4 230.4-5.689 65.422 17.067 130.844 59.733 182.044s102.4 79.644 170.667 85.333c65.422 5.689 130.844-17.067 182.044-59.733 36.978-31.289 62.578-73.956 76.8-122.311l-71.111 34.133c-22.756 8.533-45.511 0-56.889-22.756s0-45.511 22.756-56.889l164.978-73.956c5.689-2.844 11.378-2.844 17.067-2.844 17.067 0 31.289 8.533 39.822 25.6l73.956 164.978c8.533 22.756 0 45.511-22.756 56.889z" />
<glyph unicode="&#xe92c;" glyph-name="setting" d="M509.042 68.523c-11.378 0-22.756 2.844-34.133 5.689-31.289 11.378-56.889 34.133-65.422 65.422l-2.844 8.533c0 2.844-2.844 2.844-2.844 5.689-2.844 11.378-14.222 17.067-25.6 14.222-2.844 0-5.689-2.844-8.533-2.844l-8.533-2.844c-56.889-25.6-119.467-2.844-145.067 51.2-14.222 28.444-14.222 62.578 0 93.867l5.689 14.222c2.844 5.689 2.844 11.378 0 17.067-2.844 2.844-2.844 5.689-8.533 8.533-2.844 0-8.533 2.844-11.378 5.689l-8.533 2.844c-25.6 8.533-45.511 28.444-59.733 54.044-11.378 25.6-14.222 54.044-5.689 82.489 11.378 31.289 34.133 56.889 65.422 65.422l8.533 2.844c2.844 0 2.844 2.844 5.689 2.844 5.689 2.844 11.378 5.689 11.378 11.378 2.844 5.689 2.844 8.533 2.844 14.222-2.844 2.844-2.844 5.689-2.844 8.533l-2.844 8.533c-14.222 28.444-14.222 59.733-2.844 85.333s28.444 45.511 54.044 56.889c28.444 14.222 59.733 14.222 91.022 0l14.222-5.689c5.689-2.844 11.378-2.844 17.067 0 2.844 2.844 5.689 2.844 8.533 8.533 0 2.844 2.844 8.533 5.689 11.378l2.844 8.533c19.911 54.044 79.644 82.489 136.533 62.578 28.444-8.533 54.044-31.289 68.267-62.578l5.689-11.378c0-2.844 2.844-2.844 2.844-5.689 2.844-5.689 5.689-11.378 11.378-11.378 5.689-2.844 8.533-2.844 14.222-2.844 2.844 0 5.689 2.844 8.533 2.844l8.533 2.844c28.444 14.222 59.733 14.222 85.333 2.844s45.511-28.444 56.889-54.044c14.222-28.444 14.222-59.733 0-91.022l-5.689-14.222c-2.844-8.533-2.844-22.756 8.533-28.444 2.844 0 5.689-2.844 8.533-2.844l11.378-5.689c54.044-17.067 82.489-79.644 65.422-136.533-11.378-31.289-36.978-59.733-68.267-68.267 0 0-2.844 0-2.844 0l-11.378-2.844c-8.533-2.844-14.222-14.222-11.378-25.6 2.844-2.844 2.844-5.689 2.844-8.533l2.844-8.533c14.222-28.444 14.222-59.733 2.844-85.333s-28.444-45.511-54.044-56.889c-28.444-14.222-59.733-14.222-91.022 0l-14.222 5.689c-5.689 2.844-11.378 2.844-17.067 0-2.844-2.844-5.689-2.844-8.533-8.533 0-2.844-2.844-8.533-5.689-11.378l-2.844-8.533c-19.911-42.667-59.733-68.267-105.244-68.267zM483.442 182.3l5.689-8.533c0-2.844 2.844-5.689 2.844-8.533 2.844-5.689 8.533-8.533 11.378-11.378 11.378-2.844 25.6 2.844 28.444 14.222 0 2.844 0 2.844 2.844 5.689l2.844 8.533c0 2.844 2.844 5.689 5.689 11.378 11.378 25.6 31.289 42.667 56.889 54.044 28.444 11.378 56.889 8.533 85.333-2.844l14.222-5.689c5.689-2.844 14.222-2.844 19.911 0 0 0 2.844 0 2.844 0 5.689 2.844 8.533 5.689 8.533 8.533 2.844 5.689 2.844 11.378 0 19.911l-5.689 8.533c-2.844 5.689-5.689 11.378-5.689 14.222-17.067 56.889 14.222 113.778 68.267 133.689 2.844 0 2.844 0 5.689 0l11.378 2.844c5.689 2.844 8.533 8.533 11.378 11.378 2.844 11.378-2.844 25.6-14.222 28.444l-17.067 5.689c-2.844 0-8.533 2.844-14.222 5.689-54.044 25.6-73.956 91.022-51.2 142.222l5.689 14.222c2.844 5.689 2.844 14.222 0 19.911 0 0 0 2.844 0 2.844-2.844 5.689-5.689 8.533-8.533 8.533-5.689 2.844-11.378 2.844-19.911 0l-8.533-5.689c-5.689-2.844-11.378-5.689-14.222-5.689-25.6-8.533-54.044-5.689-76.8 5.689-25.6 11.378-45.511 34.133-54.044 59.733l-5.689 8.533c0 0 0 2.844 0 2.844-5.689 11.378-11.378 14.222-14.222 14.222-8.533 2.844-14.222 2.844-19.911 0-2.844-2.844-8.533-5.689-11.378-11.378 0-2.844 0-2.844-2.844-5.689l-2.844-8.533c0-2.844-2.844-5.689-5.689-8.533-11.378-25.6-31.289-42.667-56.889-54.044-28.444-11.378-56.889-8.533-85.333 2.844l-14.222 5.689c-5.689 2.844-14.222 2.844-19.911 0 0 0-2.844 0-2.844 0-5.689-2.844-8.533-5.689-8.533-8.533-2.844-5.689-2.844-11.378 0-19.911l5.689-8.533c2.844-5.689 5.689-11.378 5.689-14.222 8.533-25.6 5.689-54.044-5.689-76.8-11.378-25.6-34.133-45.511-59.733-54.044l-8.533-5.689c-2.844 0-5.689-2.844-8.533-2.844-5.689 0-8.533-5.689-11.378-11.378s-2.844-11.378 0-17.067c2.844-2.844 5.689-8.533 11.378-11.378 2.844 0 2.844 0 5.689-2.844l8.533-2.844c2.844 0 5.689-2.844 8.533-5.689 25.6-11.378 42.667-31.289 54.044-56.889 11.378-28.444 8.533-56.889-2.844-85.333l-5.689-11.378c-2.844-5.689-2.844-14.222 0-19.911 5.689-14.222 22.756-17.067 31.289-11.378l8.533 5.689c5.689 2.844 11.378 5.689 14.222 5.689 62.578 11.378 119.467-17.067 139.378-68.267zM511.886 290.389c-85.333 0-156.444 71.111-156.444 156.444s71.111 156.444 156.444 156.444c85.333 0 156.444-71.111 156.444-156.444s-71.111-156.444-156.444-156.444zM511.886 517.945c-39.822 0-71.111-31.289-71.111-71.111s31.289-71.111 71.111-71.111c39.822 0 71.111 31.289 71.111 71.111s-31.289 71.111-71.111 71.111z" />
<glyph unicode="&#xe92d;" glyph-name="intoPage" d="M762.311 442.311c0 2.844 0 2.844 0 5.689s0 2.844 0 5.689 0 2.844 0 5.689-2.844 2.844-2.844 5.689c0 2.844-2.844 2.844-2.844 5.689 0 0 0 0 0 0s0 0 0 0l-176.356 176.356c-11.378 11.378-28.444 11.378-39.822 0s-11.378-28.444 0-39.822l128-128h-389.689c-17.067 0-28.444-11.378-28.444-28.444s11.378-28.444 28.444-28.444h386.844l-128-125.156c-11.378-11.378-11.378-28.444 0-39.822 5.689-5.689 14.222-8.533 19.911-8.533 8.533 0 14.222 2.844 19.911 8.533l176.356 173.511c0 0 0 0 0 0s0 0 0 0 2.844 2.844 2.844 5.689c0 2.844 2.844 2.844 2.844 5.689 0-2.844 2.844-2.844 2.844 0z" />
<glyph unicode="&#xe92e;" glyph-name="logout" d="M509.156 116.281c-79.644 0-153.6 28.444-213.333 79.644-133.689 119.467-147.911 324.267-31.289 460.8 14.222 17.067 42.667 19.911 59.733 5.689s19.911-42.667 5.689-59.733c-85.333-99.556-76.8-253.156 25.6-341.333 48.356-42.667 110.933-62.578 173.511-56.889 65.422 5.689 125.156 34.133 164.978 82.489 76.8 91.022 76.8 224.711 0 315.733-14.222 17.067-14.222 45.511 5.689 59.733s45.511 14.222 59.733-5.689c105.244-125.156 105.244-304.356 0-426.667-56.889-65.422-136.533-105.244-224.711-110.933-8.533-2.844-17.067-2.844-25.6-2.844zM512 395.036c-22.756 0-42.667 19.911-42.667 42.667v298.667c0 22.756 19.911 42.667 42.667 42.667s42.667-19.911 42.667-42.667v-298.667c0-22.756-19.911-42.667-42.667-42.667z" />
<glyph unicode="&#xe92f;" glyph-name="navSwitch" d="M227.556 718.222h568.889v-85.333h-568.889v85.333zM227.556 490.667h568.889v-85.333h-568.889v85.333zM227.556 263.111h568.889v-85.333h-568.889v85.333z" />
<glyph unicode="zhifubaoReport" glyph-name="zhifubaoReport" d="M733.867 132.267l-182.044 182.044 139.378 139.378c2.844 2.844 5.689 5.689 5.689 8.533 2.844 5.689 2.844 14.222 0 22.756-2.844 5.689-8.533 11.378-14.222 14.222-2.844 2.844-8.533 2.844-11.378 2.844h-130.844v105.244h164.978c17.067 0 28.444 11.378 28.444 28.444s-11.378 28.444-28.444 28.444h-164.978v130.844c0 17.067-11.378 28.444-28.444 28.444s-28.444-11.378-28.444-28.444v-130.844h-162.133c-17.067 0-28.444-11.378-28.444-28.444s11.378-28.444 28.444-28.444h164.978v-102.4h-133.689c-2.844 0-8.533 0-11.378-2.844-5.689-2.844-11.378-8.533-14.222-14.222s-2.844-14.222 0-22.756c0-5.689 2.844-8.533 5.689-11.378l139.378-139.378-182.044-182.044c-11.378-11.378-11.378-28.444 0-39.822 5.689-5.689 14.222-8.533 19.911-8.533s14.222 2.844 19.911 8.533l182.044 182.044 182.044-182.044c5.689-5.689 14.222-8.533 19.911-8.533s14.222 2.844 19.911 8.533c11.378 11.378 11.378 28.444 0 39.822zM420.978 445.156h182.044l-91.022-91.022-91.022 91.022z" />
<glyph unicode="uncompleted" glyph-name="uncompleted" d="M512 408.178l-99.556-102.4-39.822 39.822 99.556 102.4-99.556 99.556 39.822 39.822 99.556-99.556 99.556 99.556 39.822-39.822-99.556-99.556 99.556-99.556-39.822-42.667-99.556 102.4z" />
<glyph unicode="staff" glyph-name="staff" d="M657.778 214.869c-65.422 0-119.467 54.044-119.467 119.467s54.044 119.467 119.467 119.467 119.467-54.044 119.467-119.467-54.044-119.467-119.467-119.467zM657.778 396.914c-34.133 0-62.578-28.444-62.578-62.578s28.444-62.578 62.578-62.578 62.578 28.444 62.578 62.578-28.444 62.578-62.578 62.578zM825.6 78.336h-341.333c-17.067 0-28.444 11.378-28.444 28.444 0 62.578 51.2 113.778 113.778 113.778h173.511c31.289 0 59.733-11.378 82.489-34.133 19.911-22.756 31.289-51.2 28.444-79.644 0-17.067-14.222-28.444-28.444-28.444zM521.244 135.225h270.222c-2.844 2.844-5.689 8.533-8.533 11.378-11.378 11.378-25.6 17.067-39.822 17.067h-173.511c-19.911 0-39.822-11.378-48.356-28.444zM381.127 106.667h-184.889c-17.067 0-28.444 11.378-28.444 28.444v654.222c0 17.067 11.378 28.444 28.444 28.444h509.156c17.067 0 28.444-11.378 28.444-28.444v-312.889c0-17.067-11.378-28.444-28.444-28.444s-28.444 11.378-28.444 28.444v284.444h-452.267v-597.333h156.444c17.067 0 28.444-11.378 28.444-28.444s-11.378-28.444-28.444-28.444zM577.394 607.289h-290.133c-17.067 0-28.444 11.378-28.444 28.444s11.378 28.444 28.444 28.444h290.133c17.067 0 28.444-11.378 28.444-28.444s-11.378-28.444-28.444-28.444zM577.394 453.689h-290.133c-17.067 0-28.444 11.378-28.444 28.444s11.378 28.444 28.444 28.444h290.133c17.067 0 28.444-11.378 28.444-28.444s-11.378-28.444-28.444-28.444zM486.372 297.244h-199.111c-17.067 0-28.444 11.378-28.444 28.444s11.378 28.444 28.444 28.444h199.111c17.067 0 28.444-11.378 28.444-28.444s-11.378-28.444-28.444-28.444z" />
<glyph unicode="setting" glyph-name="setting" d="M509.042 68.523c-11.378 0-22.756 2.844-34.133 5.689-31.289 11.378-56.889 34.133-65.422 65.422l-2.844 8.533c0 2.844-2.844 2.844-2.844 5.689-2.844 11.378-14.222 17.067-25.6 14.222-2.844 0-5.689-2.844-8.533-2.844l-8.533-2.844c-56.889-25.6-119.467-2.844-145.067 51.2-14.222 28.444-14.222 62.578 0 93.867l5.689 14.222c2.844 5.689 2.844 11.378 0 17.067-2.844 2.844-2.844 5.689-8.533 8.533-2.844 0-8.533 2.844-11.378 5.689l-8.533 2.844c-25.6 8.533-45.511 28.444-59.733 54.044-11.378 25.6-14.222 54.044-5.689 82.489 11.378 31.289 34.133 56.889 65.422 65.422l8.533 2.844c2.844 0 2.844 2.844 5.689 2.844 5.689 2.844 11.378 5.689 11.378 11.378 2.844 5.689 2.844 8.533 2.844 14.222-2.844 2.844-2.844 5.689-2.844 8.533l-2.844 8.533c-14.222 28.444-14.222 59.733-2.844 85.333s28.444 45.511 54.044 56.889c28.444 14.222 59.733 14.222 91.022 0l14.222-5.689c5.689-2.844 11.378-2.844 17.067 0 2.844 2.844 5.689 2.844 8.533 8.533 0 2.844 2.844 8.533 5.689 11.378l2.844 8.533c19.911 54.044 79.644 82.489 136.533 62.578 28.444-8.533 54.044-31.289 68.267-62.578l5.689-11.378c0-2.844 2.844-2.844 2.844-5.689 2.844-5.689 5.689-11.378 11.378-11.378 5.689-2.844 8.533-2.844 14.222-2.844 2.844 0 5.689 2.844 8.533 2.844l8.533 2.844c28.444 14.222 59.733 14.222 85.333 2.844s45.511-28.444 56.889-54.044c14.222-28.444 14.222-59.733 0-91.022l-5.689-14.222c-2.844-8.533-2.844-22.756 8.533-28.444 2.844 0 5.689-2.844 8.533-2.844l11.378-5.689c54.044-17.067 82.489-79.644 65.422-136.533-11.378-31.289-36.978-59.733-68.267-68.267 0 0-2.844 0-2.844 0l-11.378-2.844c-8.533-2.844-14.222-14.222-11.378-25.6 2.844-2.844 2.844-5.689 2.844-8.533l2.844-8.533c14.222-28.444 14.222-59.733 2.844-85.333s-28.444-45.511-54.044-56.889c-28.444-14.222-59.733-14.222-91.022 0l-14.222 5.689c-5.689 2.844-11.378 2.844-17.067 0-2.844-2.844-5.689-2.844-8.533-8.533 0-2.844-2.844-8.533-5.689-11.378l-2.844-8.533c-19.911-42.667-59.733-68.267-105.244-68.267zM483.442 182.3l5.689-8.533c0-2.844 2.844-5.689 2.844-8.533 2.844-5.689 8.533-8.533 11.378-11.378 11.378-2.844 25.6 2.844 28.444 14.222 0 2.844 0 2.844 2.844 5.689l2.844 8.533c0 2.844 2.844 5.689 5.689 11.378 11.378 25.6 31.289 42.667 56.889 54.044 28.444 11.378 56.889 8.533 85.333-2.844l14.222-5.689c5.689-2.844 14.222-2.844 19.911 0 0 0 2.844 0 2.844 0 5.689 2.844 8.533 5.689 8.533 8.533 2.844 5.689 2.844 11.378 0 19.911l-5.689 8.533c-2.844 5.689-5.689 11.378-5.689 14.222-17.067 56.889 14.222 113.778 68.267 133.689 2.844 0 2.844 0 5.689 0l11.378 2.844c5.689 2.844 8.533 8.533 11.378 11.378 2.844 11.378-2.844 25.6-14.222 28.444l-17.067 5.689c-2.844 0-8.533 2.844-14.222 5.689-54.044 25.6-73.956 91.022-51.2 142.222l5.689 14.222c2.844 5.689 2.844 14.222 0 19.911 0 0 0 2.844 0 2.844-2.844 5.689-5.689 8.533-8.533 8.533-5.689 2.844-11.378 2.844-19.911 0l-8.533-5.689c-5.689-2.844-11.378-5.689-14.222-5.689-25.6-8.533-54.044-5.689-76.8 5.689-25.6 11.378-45.511 34.133-54.044 59.733l-5.689 8.533c0 0 0 2.844 0 2.844-5.689 11.378-11.378 14.222-14.222 14.222-8.533 2.844-14.222 2.844-19.911 0-2.844-2.844-8.533-5.689-11.378-11.378 0-2.844 0-2.844-2.844-5.689l-2.844-8.533c0-2.844-2.844-5.689-5.689-8.533-11.378-25.6-31.289-42.667-56.889-54.044-28.444-11.378-56.889-8.533-85.333 2.844l-14.222 5.689c-5.689 2.844-14.222 2.844-19.911 0 0 0-2.844 0-2.844 0-5.689-2.844-8.533-5.689-8.533-8.533-2.844-5.689-2.844-11.378 0-19.911l5.689-8.533c2.844-5.689 5.689-11.378 5.689-14.222 8.533-25.6 5.689-54.044-5.689-76.8-11.378-25.6-34.133-45.511-59.733-54.044l-8.533-5.689c-2.844 0-5.689-2.844-8.533-2.844-5.689 0-8.533-5.689-11.378-11.378s-2.844-11.378 0-17.067c2.844-2.844 5.689-8.533 11.378-11.378 2.844 0 2.844 0 5.689-2.844l8.533-2.844c2.844 0 5.689-2.844 8.533-5.689 25.6-11.378 42.667-31.289 54.044-56.889 11.378-28.444 8.533-56.889-2.844-85.333l-5.689-11.378c-2.844-5.689-2.844-14.222 0-19.911 5.689-14.222 22.756-17.067 31.289-11.378l8.533 5.689c5.689 2.844 11.378 5.689 14.222 5.689 62.578 11.378 119.467-17.067 139.378-68.267zM511.886 290.389c-85.333 0-156.444 71.111-156.444 156.444s71.111 156.444 156.444 156.444c85.333 0 156.444-71.111 156.444-156.444s-71.111-156.444-156.444-156.444zM511.886 517.945c-39.822 0-71.111-31.289-71.111-71.111s31.289-71.111 71.111-71.111c39.822 0 71.111 31.289 71.111 71.111s-31.289 71.111-71.111 71.111z" />
<glyph unicode="refresh" glyph-name="refresh" d="M864.711 638.578c-22.756 8.533-45.511 0-56.889-22.756l-31.289-68.267c-17.067 56.889-51.2 110.933-99.556 150.756-68.267 59.733-153.6 88.178-244.622 82.489-88.178-5.689-170.667-45.511-227.556-113.778-59.733-68.267-88.178-153.6-82.489-244.622 14.222-167.822 145.067-298.667 310.044-310.044 0 0 2.844 0 2.844 0 22.756 0 39.822 17.067 42.667 39.822 0 22.756-17.067 42.667-39.822 45.511-122.311 8.533-219.022 105.244-230.4 230.4-5.689 65.422 17.067 130.844 59.733 182.044s102.4 79.644 170.667 85.333c65.422 5.689 130.844-17.067 182.044-59.733 36.978-31.289 62.578-73.956 76.8-122.311l-71.111 34.133c-22.756 8.533-45.511 0-56.889-22.756s0-45.511 22.756-56.889l164.978-73.956c5.689-2.844 11.378-2.844 17.067-2.844 17.067 0 31.289 8.533 39.822 25.6l73.956 164.978c8.533 22.756 0 45.511-22.756 56.889z" />
<glyph unicode="recharge" glyph-name="recharge" d="M386.816 149.333h-179.2c-17.067 0-28.444 11.378-28.444 28.444v640c0 17.067 11.378 28.444 28.444 28.444h494.933c17.067 0 28.444-11.378 28.444-28.444v-304.356c0-17.067-11.378-28.444-28.444-28.444s-28.444 11.378-28.444 28.444v275.911h-438.044v-583.111h150.756c17.067 0 28.444-11.378 28.444-28.444s-11.378-28.444-28.444-28.444zM577.394 638.578h-281.6c-17.067 0-28.444 11.378-28.444 28.444s11.378 28.444 28.444 28.444h281.6c17.067 0 28.444-11.378 28.444-28.444s-11.378-28.444-28.444-28.444zM577.394 487.822h-281.6c-17.067 0-28.444 11.378-28.444 28.444s11.378 28.444 28.444 28.444h281.6c17.067 0 28.444-11.378 28.444-28.444s-11.378-28.444-28.444-28.444zM489.216 337.067h-193.422c-17.067 0-28.444 11.378-28.444 28.444s11.378 28.444 28.444 28.444h193.422c17.067 0 28.444-11.378 28.444-28.444s-11.378-28.444-28.444-28.444zM817.067 319.403h-227.556c-17.067 0-28.444 11.378-28.444 28.444s11.378 28.444 28.444 28.444h227.556c17.067 0 28.444-11.378 28.444-28.444s-11.378-28.444-28.444-28.444zM646.4 262.514c-8.533 0-14.222 2.844-19.911 8.533l-56.889 56.889c-11.378 11.378-11.378 28.444 0 39.822s28.444 11.378 39.822 0l56.889-56.889c11.378-11.378 11.378-28.444 0-39.822-5.689-5.689-11.378-8.533-19.911-8.533zM589.511 319.403c-8.533 0-14.222 2.844-19.911 8.533-11.378 11.378-11.378 28.444 0 39.822l56.889 56.889c11.378 11.378 28.444 11.378 39.822 0s11.378-28.444 0-39.822l-56.889-56.889c-5.689-5.689-11.378-8.533-19.911-8.533zM761.572 118.67h-227.556c-17.067 0-28.444 11.378-28.444 28.444s11.378 28.444 28.444 28.444h227.556c17.067 0 28.444-11.378 28.444-28.444s-11.378-28.444-28.444-28.444zM761.572 118.67c-8.533 0-14.222 2.844-19.911 8.533l-56.889 56.889c-11.378 11.378-11.378 28.444 0 39.822s28.444 11.378 39.822 0l56.889-56.889c11.378-11.378 11.378-28.444 0-39.822-5.689-5.689-11.378-8.533-19.911-8.533zM704.683 61.781c-8.533 0-14.222 2.844-19.911 8.533-11.378 11.378-11.378 28.444 0 39.822l56.889 56.889c11.378 11.378 28.444 11.378 39.822 0s11.378-28.444 0-39.822l-56.889-56.889c-5.689-5.689-11.378-8.533-19.911-8.533z" />
<glyph unicode="prevPage" glyph-name="prevPage" d="M378.311 448l216.178 216.178 54.044-54.044-162.133-162.133 159.289-159.289-54.044-54.044-213.333 213.333z" />
<glyph unicode="personInfo" glyph-name="personInfo" d="M799.289 601.6h-45.511c-14.222 122.311-116.622 216.178-241.778 216.178s-230.4-93.867-241.778-216.178h-45.511c-17.067 0-28.444-11.378-28.444-28.444s11.378-28.444 28.444-28.444h45.511c5.689-45.511 22.756-88.178 51.2-122.311h-25.6c-17.067 0-28.444-11.378-28.444-28.444v-287.289c0-17.067 11.378-28.444 28.444-28.444h429.511c17.067 0 28.444 11.378 28.444 28.444v287.289c0 17.067-11.378 28.444-28.444 28.444h-25.6c28.444 34.133 45.511 76.8 51.2 122.311h45.511c17.067 0 28.444 11.378 28.444 28.444s-11.378 28.444-25.6 28.444zM512 760.889c93.867 0 170.667-68.267 184.889-159.289h-369.778c11.378 91.022 91.022 159.289 184.889 159.289zM696.889 135.111h-372.622v230.4h71.111c11.378 0 22.756 8.533 28.444 19.911s0 25.6-11.378 31.289c-45.511 28.444-73.956 76.8-82.489 128h369.778c-8.533-51.2-36.978-99.556-82.489-128-11.378-5.689-14.222-19.911-11.378-31.289s14.222-19.911 28.444-19.911h71.111v-230.4h-8.533zM358.4 300.089c0-17.067 11.378-28.444 28.444-28.444h250.311c17.067 0 28.444 11.378 28.444 28.444s-11.378 28.444-28.444 28.444h-250.311c-17.067 0-28.444-11.378-28.444-28.444zM600.178 223.289h-179.2c-17.067 0-28.444-11.378-28.444-28.444s11.378-28.444 28.444-28.444h179.2c17.067 0 28.444 11.378 28.444 28.444s-11.378 28.444-28.444 28.444z" />
<glyph unicode="nextPage" glyph-name="nextPage" d="M645.689 448l-216.178-216.178-54.044 54.044 162.133 162.133-159.289 159.289 54.044 54.044 213.333-213.333z" />
<glyph unicode="navSwitch" glyph-name="navSwitch" d="M227.556 718.222h568.889v-85.333h-568.889v85.333zM227.556 490.667h568.889v-85.333h-568.889v85.333zM227.556 263.111h568.889v-85.333h-568.889v85.333z" />
<glyph unicode="miguanReport" glyph-name="miguanReport" d="M685.511 641.422h-347.022c-17.067 0-28.444-11.378-28.444-28.444s11.378-28.444 28.444-28.444h347.022c17.067 0 28.444 11.378 28.444 28.444s-14.222 28.444-28.444 28.444zM685.511 482.133h-347.022c-17.067 0-28.444-11.378-28.444-28.444s11.378-28.444 28.444-28.444h347.022c17.067 0 28.444 11.378 28.444 28.444s-14.222 28.444-28.444 28.444zM685.511 311.467h-347.022c-17.067 0-28.444-11.378-28.444-28.444s11.378-28.444 28.444-28.444h347.022c17.067 0 28.444 11.378 28.444 28.444s-14.222 28.444-28.444 28.444zM816.356 448c0 19.911-5.689 42.667-14.222 59.733v88.178c19.911 36.978 19.911 82.489 0 122.311v42.667c0 17.067-11.378 28.444-28.444 28.444h-523.378c-17.067 0-28.444-11.378-28.444-28.444v-42.667c-19.911-36.978-19.911-82.489 0-122.311v-88.178c-19.911-36.978-19.911-82.489 0-122.311v-88.178c-8.533-17.067-14.222-36.978-14.222-56.889s5.689-42.667 14.222-59.733v-45.511c0-17.067 11.378-28.444 28.444-28.444h523.378c17.067 0 28.444 11.378 28.444 28.444v42.667c8.533 19.911 14.222 39.822 14.222 59.733s-5.689 42.667-14.222 59.733v88.178c8.533 19.911 14.222 42.667 14.222 62.578zM748.089 277.333c5.689-11.378 11.378-25.6 11.378-39.822s-2.844-25.6-11.378-39.822c-2.844-5.689-2.844-8.533-2.844-14.222v-19.911h-466.489v22.756c0 5.689 0 11.378-2.844 14.222-8.533 11.378-11.378 25.6-11.378 39.822s2.844 25.6 11.378 39.822c2.844 5.689 2.844 8.533 2.844 14.222v102.4c0 5.689 0 11.378-2.844 14.222-14.222 22.756-14.222 54.044 0 76.8 2.844 5.689 2.844 8.533 2.844 14.222v102.4c0 5.689 0 11.378-2.844 14.222-14.222 22.756-14.222 54.044 0 76.8 2.844 2.844 2.844 8.533 2.844 14.222v22.756h466.489v-22.756c0-5.689 0-11.378 2.844-14.222 14.222-22.756 14.222-54.044 0-76.8-2.844-5.689-2.844-8.533-2.844-14.222v-102.4c0-5.689 0-11.378 2.844-14.222 5.689-11.378 11.378-25.6 11.378-39.822s-2.844-25.6-11.378-39.822c-2.844-5.689-2.844-8.533-2.844-14.222v-102.4c0-2.844 0-8.533 2.844-14.222z" />
<glyph unicode="logout" glyph-name="logout" d="M509.156 116.281c-79.644 0-153.6 28.444-213.333 79.644-133.689 119.467-147.911 324.267-31.289 460.8 14.222 17.067 42.667 19.911 59.733 5.689s19.911-42.667 5.689-59.733c-85.333-99.556-76.8-253.156 25.6-341.333 48.356-42.667 110.933-62.578 173.511-56.889 65.422 5.689 125.156 34.133 164.978 82.489 76.8 91.022 76.8 224.711 0 315.733-14.222 17.067-14.222 45.511 5.689 59.733s45.511 14.222 59.733-5.689c105.244-125.156 105.244-304.356 0-426.667-56.889-65.422-136.533-105.244-224.711-110.933-8.533-2.844-17.067-2.844-25.6-2.844zM512 395.036c-22.756 0-42.667 19.911-42.667 42.667v298.667c0 22.756 19.911 42.667 42.667 42.667s42.667-19.911 42.667-42.667v-298.667c0-22.756-19.911-42.667-42.667-42.667z" />
<glyph unicode="loading" glyph-name="loading" d="M523.378 149.333c22.756 0 45.511 2.844 65.422 8.533l42.667-73.956c5.689-11.378 19.911-14.222 28.444-8.533l99.556 56.889c11.378 5.689 14.222 19.911 8.533 28.444l-39.822 71.111c39.822 36.978 68.267 85.333 82.489 136.533h79.644c11.378 0 22.756 8.533 22.756 22.756v0 113.778c0 11.378-8.533 22.756-22.756 22.756v0h-79.644c-14.222 51.2-42.667 99.556-82.489 136.533l39.822 71.111c5.689 11.378 2.844 22.756-8.533 28.444l-99.556 56.889c-11.378 5.689-22.756 2.844-28.444-8.533l-42.667-73.956c-48.356 11.378-99.556 8.533-150.756-5.689l-45.511 79.644c-5.689 11.378-19.911 14.222-28.444 8.533l-99.556-56.889c-11.378-5.689-17.067-19.911-8.533-28.444l48.356-82.489c-31.289-34.133-56.889-76.8-68.267-122.311h-99.556c-14.222-2.844-22.756-11.378-22.756-25.6v0-113.778c0-11.378 8.533-22.756 22.756-22.756v0h99.556c11.378-45.511 36.978-88.178 68.267-122.311l-48.356-85.333c-5.689-11.378-2.844-22.756 8.533-28.444l99.556-56.889c11.378-5.689 22.756-2.844 28.444 8.533l45.511 79.644c28.444-11.378 56.889-14.222 85.333-14.222zM392.533 448c0 65.422 54.044 119.467 119.467 119.467s119.467-54.044 119.467-119.467-54.044-119.467-119.467-119.467v0c-65.422 0-119.467 54.044-119.467 119.467z" />
<glyph unicode="lastPage" glyph-name="lastPage" d="M573.326 448l-201.956-201.956-51.2 51.2 150.756 150.756-150.756 147.911 51.2 51.2 201.956-199.111zM630.215 661.333h71.111v-426.667h-71.111v426.667z" />
<glyph unicode="juxinliReport" glyph-name="juxinliReport" d="M311.893 420.494c-22.756 0-48.356 8.533-65.422 25.6-36.978 36.978-36.978 93.867 0 130.844l65.422 65.422c34.133 34.133 93.867 34.133 130.844 0 36.978-36.978 36.978-93.867 0-130.844l-65.422-65.422c-19.911-14.222-42.667-25.6-65.422-25.6zM377.316 616.761c-8.533 0-17.067-2.844-25.6-11.378l-65.422-65.422c-14.222-14.222-14.222-36.978 0-48.356 14.222-14.222 36.978-14.222 48.356 0l65.422 65.422c14.222 14.222 14.222 36.978 0 48.356-5.689 8.533-14.222 11.378-22.756 11.378zM664.604 147.428c-68.267 0-145.067 31.289-207.644 93.867-102.4 102.4-125.156 247.467-48.356 324.267v0c76.8 76.8 221.867 54.044 324.267-48.356s125.156-247.467 48.356-324.267c-28.444-31.289-71.111-45.511-116.622-45.511zM451.271 528.583c-54.044-54.044-31.289-164.978 48.356-244.622s190.578-102.4 244.622-48.356c54.044 54.044 31.289 164.978-48.356 244.622-82.489 79.644-190.578 99.556-244.622 48.356v0zM331.804 594.005c-8.533 0-17.067 2.844-22.756 11.378l-48.356 65.422h-88.178c-17.067 0-28.444 11.378-28.444 28.444s11.378 28.444 28.444 28.444h102.4c8.533 0 17.067-5.689 22.756-11.378l56.889-79.644c8.533-11.378 5.689-31.289-5.689-39.822-5.689 2.844-11.378-2.844-17.067-2.844zM511.004 431.872c-8.533 0-14.222 2.844-19.911 8.533-11.378 11.378-11.378 28.444 0 39.822l102.4 102.4c11.378 11.378 28.444 11.378 39.822 0s11.378-28.444 0-39.822l-102.4-102.4c-5.689-8.533-14.222-8.533-19.911-8.533zM661.76 278.272c-8.533 0-14.222 2.844-19.911 8.533-11.378 11.378-11.378 28.444 0 39.822l102.4 102.4c11.378 11.378 28.444 11.378 39.822 0s11.378-28.444 0-39.822l-102.4-102.4c-5.689-5.689-14.222-8.533-19.911-8.533zM562.204 323.783c-8.533 0-14.222 2.844-19.911 8.533-11.378 11.378-11.378 28.444 0 39.822l142.222 142.222c11.378 11.378 28.444 11.378 39.822 0s11.378-28.444 0-39.822l-142.222-142.222c-5.689-2.844-14.222-8.533-19.911-8.533zM693.049 542.805c-108.089 0-187.733 45.511-187.733 105.244s79.644 105.244 187.733 105.244 187.733-45.511 187.733-105.244-79.644-105.244-187.733-105.244zM693.049 690.716c-82.489 0-130.844-31.289-130.844-48.356s51.2-48.356 130.844-48.356 130.844 31.289 130.844 48.356-48.356 48.356-130.844 48.356z" />
<glyph unicode="intoPage" glyph-name="intoPage" d="M762.311 442.311c0 2.844 0 2.844 0 5.689s0 2.844 0 5.689 0 2.844 0 5.689-2.844 2.844-2.844 5.689c0 2.844-2.844 2.844-2.844 5.689 0 0 0 0 0 0s0 0 0 0l-176.356 176.356c-11.378 11.378-28.444 11.378-39.822 0s-11.378-28.444 0-39.822l128-128h-389.689c-17.067 0-28.444-11.378-28.444-28.444s11.378-28.444 28.444-28.444h386.844l-128-125.156c-11.378-11.378-11.378-28.444 0-39.822 5.689-5.689 14.222-8.533 19.911-8.533 8.533 0 14.222 2.844 19.911 8.533l176.356 173.511c0 0 0 0 0 0s0 0 0 0 2.844 2.844 2.844 5.689c0 2.844 2.844 2.844 2.844 5.689 0-2.844 2.844-2.844 2.844 0z" />
<glyph unicode="idCardNo" glyph-name="idCardNo" d="M830.578 192h-637.156c-17.067 0-28.444 11.378-28.444 28.444v258.844h696.889v-258.844c-2.844-17.067-14.222-28.444-31.289-28.444zM859.022 561.778h-694.044v113.778c0 17.067 11.378 28.444 28.444 28.444h640c17.067 0 28.444-11.378 28.444-28.444v-113.778h-2.844z" />
<glyph unicode="home" glyph-name="home" d="M725.333 78.222h-136.533c-17.067 0-28.444 11.378-28.444 28.444v201.956h-99.556v-201.956c0-17.067-11.378-28.444-28.444-28.444h-136.533c-17.067 0-28.444 11.378-28.444 28.444v369.778h-51.2c-11.378 0-22.756 5.689-25.6 17.067-5.689 11.378-2.844 22.756 5.689 31.289l298.667 284.444c11.378 11.378 28.444 11.378 39.822 0l298.667-284.444c8.533-8.533 11.378-19.911 5.689-31.289s-17.067-17.067-28.444-17.067h-54.044v-369.778c-2.844-17.067-11.378-28.444-31.289-28.444zM620.089 135.111h79.644v369.778c0 17.067 11.378 28.444 28.444 28.444h11.378l-227.556 216.178-227.556-216.178h11.378c17.067 0 28.444-11.378 28.444-28.444v-369.778h79.644v201.956c0 17.067 11.378 28.444 28.444 28.444h159.289c17.067 0 28.444-11.378 28.444-28.444 0 0 0-201.956 0-201.956z" />
<glyph unicode="firstPage" glyph-name="firstPage" d="M452.267 448l201.956 201.956 51.2-51.2-150.756-147.911 150.756-150.756-51.2-51.2-201.956 199.111zM395.378 234.667h-71.111v426.667h71.111v-426.667z" />
<glyph unicode="financial" glyph-name="financial" d="M383.972 135.111h-182.044c-17.067 0-28.444 11.378-28.444 28.444v637.156c0 17.067 11.378 28.444 28.444 28.444h494.933c17.067 0 28.444-11.378 28.444-28.444v-304.356c0-17.067-11.378-28.444-28.444-28.444s-28.444 11.378-28.444 28.444v275.911h-438.044v-580.267h153.6c17.067 0 28.444-11.378 28.444-28.444s-11.378-28.444-28.444-28.444zM574.549 624.356h-284.444c-17.067 0-28.444 11.378-28.444 28.444s11.378 28.444 28.444 28.444h284.444c17.067 0 28.444-11.378 28.444-28.444s-11.378-28.444-28.444-28.444zM574.549 470.756h-284.444c-17.067 0-28.444 11.378-28.444 28.444s11.378 28.444 28.444 28.444h284.444c17.067 0 28.444-11.378 28.444-28.444s-11.378-28.444-28.444-28.444zM486.372 320h-196.267c-17.067 0-28.444 11.378-28.444 28.444s11.378 28.444 28.444 28.444h196.267c17.067 0 28.444-11.378 28.444-28.444s-11.378-28.444-28.444-28.444zM668.444 374.044c-68.267 0-125.156-56.889-125.156-125.156s56.889-125.156 125.156-125.156 125.156 56.889 125.156 125.156-56.889 125.156-125.156 125.156zM668.444 430.933c99.556 0 182.044-82.489 182.044-182.044s-82.489-182.044-182.044-182.044-182.044 82.489-182.044 182.044 82.489 182.044 182.044 182.044zM673.593 226.674l-79.644 85.333 39.822 39.822 39.822-39.822 31.289 39.822 45.511-39.822zM585.415 275.029h170.667v-56.889h-170.667v56.889zM642.304 275.029h56.889v-133.689h-56.889v133.689z" />
<glyph unicode="detailInfo" glyph-name="detailInfo" d="M833.422 345.6c0 2.844 0 2.844 0 5.689v409.6c0 17.067-11.378 28.444-28.444 28.444h-509.156c-17.067 0-28.444-11.378-28.444-28.444v-108.089h-45.511c-17.067 0-28.444-11.378-28.444-28.444s11.378-28.444 28.444-28.444h48.356v-119.467h-48.356c-17.067 0-28.444-11.378-28.444-28.444s11.378-28.444 28.444-28.444h48.356v-119.467h-48.356c-17.067 0-28.444-11.378-28.444-28.444s11.378-28.444 28.444-28.444h48.356v-108.089c0-17.067 11.378-28.444 28.444-28.444h290.133c2.844 0 5.689 0 8.533 2.844v0c2.844 0 5.689 2.844 8.533 5.689l219.022 219.022c2.844 2.844 2.844 5.689 5.689 5.689-2.844 2.844 2.844 2.844 2.844 5.689zM611.556 203.378v122.311h122.311l-122.311-122.311zM324.267 243.2h59.733c17.067 0 28.444 11.378 28.444 28.444s-11.378 28.444-28.444 28.444h-59.733v119.467h59.733c17.067 0 28.444 11.378 28.444 28.444s-11.378 28.444-28.444 28.444h-59.733v119.467h59.733c17.067 0 28.444 11.378 28.444 28.444s-11.378 28.444-28.444 28.444h-59.733v79.644h449.422v-349.867h-190.578c-17.067 0-28.444-11.378-28.444-28.444v-190.578h-230.4v79.644z" />
<glyph unicode="contract" glyph-name="contract" d="M420.978 186.311h-145.067v560.356h423.822v-267.378c0-17.067 11.378-28.444 28.444-28.444s28.444 11.378 28.444 28.444v295.822c0 17.067-11.378 28.444-28.444 28.444h-480.711c-17.067 0-28.444-11.378-28.444-28.444v-617.244c0-17.067 11.378-28.444 28.444-28.444h173.511c17.067 0 28.444 11.378 28.444 28.444s-11.378 28.444-28.444 28.444zM608.711 658.489h-275.911c-17.067 0-28.444-11.378-28.444-28.444s11.378-28.444 28.444-28.444h275.911c17.067 0 28.444 11.378 28.444 28.444s-14.222 28.444-28.444 28.444zM637.156 484.978c0 17.067-11.378 28.444-28.444 28.444h-275.911c-17.067 0-28.444-11.378-28.444-28.444s11.378-28.444 28.444-28.444h275.911c14.222 0 28.444 11.378 28.444 28.444zM332.8 365.511c-17.067 0-28.444-11.378-28.444-28.444s11.378-28.444 28.444-28.444h187.733c17.067 0 28.444 11.378 28.444 28.444s-11.378 28.444-28.444 28.444h-187.733zM804.978 274.489l-108.089 17.067-48.356 96.711-45.511-96.711-108.089-17.067 76.8-73.956-17.067-108.089 93.867 51.2 96.711-51.2-17.067 108.089z" />
<glyph unicode="complete" glyph-name="complete" d="M452.267 308.622l-122.311 119.467 39.822 39.822 79.644-79.644 204.8 199.111 39.822-39.822-241.778-238.933z" />
<glyph unicode="check" glyph-name="check" d="M423.822 163.556h-159.289v603.022h457.956v-287.289c0-17.067 11.378-28.444 28.444-28.444s28.444 11.378 28.444 28.444v315.733c0 17.067-11.378 28.444-28.444 28.444h-514.844c-17.067 0-28.444-11.378-28.444-28.444v-659.911c0-17.067 11.378-28.444 28.444-28.444h187.733c17.067 0 28.444 11.378 28.444 28.444s-14.222 28.444-28.444 28.444zM622.933 669.867h-295.822c-17.067 0-28.444-11.378-28.444-28.444s11.378-28.444 28.444-28.444h292.978c17.067 0 28.444 11.378 28.444 28.444s-11.378 28.444-25.6 28.444zM651.378 484.978c0 17.067-11.378 28.444-28.444 28.444h-295.822c-17.067 0-28.444-11.378-28.444-28.444s11.378-28.444 28.444-28.444h292.978c17.067 0 31.289 11.378 31.289 28.444zM327.111 356.978c-17.067 0-28.444-11.378-28.444-28.444s11.378-28.444 28.444-28.444h201.956c17.067 0 28.444 11.378 28.444 28.444s-11.378 28.444-28.444 28.444h-201.956zM696.889 436.622c-65.422 0-119.467-54.044-119.467-119.467 0-22.756 5.689-42.667 17.067-62.578l-119.467-119.467c-11.378-11.378-11.378-28.444 0-39.822 2.844-8.533 11.378-11.378 17.067-11.378s14.222 2.844 19.911 8.533l119.467 119.467c17.067-11.378 39.822-17.067 62.578-17.067 65.422 0 119.467 54.044 119.467 119.467s-51.2 122.311-116.622 122.311zM696.889 251.733c-34.133 0-62.578 28.444-62.578 62.578s28.444 62.578 62.578 62.578 62.578-28.444 62.578-62.578c0-34.133-28.444-62.578-62.578-62.578z" />
<glyph unicode="borrowInfo" glyph-name="borrowInfo" d="M824.889 490.667c17.067 0 28.444 11.378 28.444 28.444v167.822c0 17.067-11.378 28.444-28.444 28.444h-625.778c-17.067 0-28.444-11.378-28.444-28.444v-167.822c0-17.067 11.378-28.444 28.444-28.444 22.756 0 42.667-19.911 42.667-42.667s-19.911-42.667-42.667-42.667c-17.067 0-28.444-11.378-28.444-28.444v-167.822c0-17.067 11.378-28.444 28.444-28.444h625.778c17.067 0 28.444 11.378 28.444 28.444v167.822c0 17.067-11.378 28.444-28.444 28.444-22.756 0-42.667 19.911-42.667 42.667s19.911 42.667 42.667 42.667zM796.444 348.444v-116.622h-568.889v116.622c42.667 11.378 71.111 51.2 71.111 96.711s-28.444 85.333-71.111 96.711v116.622h568.889v-116.622c-42.667-11.378-71.111-51.2-71.111-96.711s28.444-82.489 71.111-96.711zM645.689 581.689h-267.378c-17.067 0-28.444-11.378-28.444-28.444s11.378-28.444 28.444-28.444h267.378c17.067 0 28.444 11.378 28.444 28.444s-14.222 28.444-28.444 28.444zM645.689 482.133h-267.378c-17.067 0-28.444-11.378-28.444-28.444s11.378-28.444 28.444-28.444h267.378c17.067 0 28.444 11.378 28.444 28.444s-14.222 28.444-28.444 28.444zM583.111 379.733h-204.8c-17.067 0-28.444-11.378-28.444-28.444s11.378-28.444 28.444-28.444h204.8c17.067 0 28.444 11.378 28.444 28.444s-11.378 28.444-28.444 28.444z" />
<glyph unicode="authentication" glyph-name="authentication" d="M824.889 721.067h-625.778c-17.067 0-28.444-11.378-28.444-28.444v-486.4c0-17.067 11.378-28.444 28.444-28.444h625.778c17.067 0 28.444 11.378 28.444 28.444v486.4c0 17.067-11.378 28.444-28.444 28.444zM796.444 664.178v-105.244h-568.889v105.244h568.889zM227.556 234.667v267.378h568.889v-267.378c0 0-568.889 0-568.889 0zM463.644 382.578h-150.756c-17.067 0-28.444-11.378-28.444-28.444s11.378-28.444 28.444-28.444h150.756c17.067 0 28.444 11.378 28.444 28.444 0 14.222-14.222 28.444-28.444 28.444zM620.089 382.578h-73.956c-17.067 0-28.444-11.378-28.444-28.444s11.378-28.444 28.444-28.444h73.956c17.067 0 28.444 11.378 28.444 28.444 0 14.222-14.222 28.444-28.444 28.444z" />
<glyph unicode="arrowUp" glyph-name="arrowUp" d="M631.467 388.267l-122.311 119.467-116.622-119.467h238.933z" />
<glyph unicode="arrowRight" glyph-name="arrowRight" d="M415.289 237.511l-19.911 19.911 193.422 190.578-193.422 190.578 19.911 19.911 213.333-210.489z" />
<glyph unicode="arrowDown" glyph-name="arrowDown" d="M392.533 507.733l122.311-116.622 116.622 116.622h-238.933z" />
<glyph unicode="application" glyph-name="application" d="M409.6 163.556h-156.444v597.333h452.267v-284.444c0-17.067 11.378-28.444 28.444-28.444s28.444 11.378 28.444 28.444v312.889c0 17.067-11.378 28.444-28.444 28.444h-509.156c-14.222 0-28.444-11.378-28.444-28.444v-654.222c0-17.067 11.378-28.444 28.444-28.444h184.889c17.067 0 28.444 11.378 28.444 28.444s-11.378 28.444-28.444 28.444zM605.867 664.178h-290.133c-17.067 0-28.444-11.378-28.444-28.444s11.378-28.444 28.444-28.444h290.133c17.067 0 28.444 11.378 28.444 28.444s-11.378 28.444-28.444 28.444zM634.311 482.133c0 17.067-11.378 28.444-28.444 28.444h-290.133c-17.067 0-28.444-11.378-28.444-28.444s11.378-28.444 28.444-28.444h290.133c17.067 0 28.444 11.378 28.444 28.444zM315.733 354.133c-17.067 0-28.444-11.378-28.444-28.444s11.378-28.444 28.444-28.444h199.111c17.067 0 28.444 11.378 28.444 28.444s-11.378 28.444-28.444 28.444h-199.111zM810.667 356.978l-76.8 76.8c-11.378 11.378-28.444 11.378-39.822 0l-36.978-36.978c-8.533-8.533-11.378-22.756-2.844-34.133-11.378 5.689-25.6 5.689-34.133-2.844l-153.6-153.6c-5.689-5.689-8.533-11.378-8.533-19.911v-79.644c0-17.067 11.378-28.444 28.444-28.444h76.8c8.533 0 14.222 2.844 19.911 8.533l153.6 153.6c5.689 5.689 8.533 11.378 8.533 19.911 0 5.689-2.844 8.533-2.844 14.222 5.689-2.844 8.533-5.689 14.222-5.689 8.533 0 14.222 2.844 19.911 8.533l36.978 36.978c8.533 11.378 8.533 31.289-2.844 42.667zM548.978 135.111h-36.978v36.978l125.156 125.156 36.978-36.978-125.156-125.156z" />
<glyph unicode="afterLoan" glyph-name="afterLoan" d="M403.883 123.733h-182.044c-17.067 0-28.444 11.378-28.444 28.444v637.156c0 17.067 11.378 28.444 28.444 28.444h494.933c17.067 0 28.444-11.378 28.444-28.444v-304.356c0-17.067-11.378-28.444-28.444-28.444s-28.444 11.378-28.444 28.444v275.911h-438.044v-580.267h153.6c17.067 0 28.444-11.378 28.444-28.444s-11.378-28.444-28.444-28.444zM594.46 612.978h-281.6c-17.067 0-28.444 11.378-28.444 28.444s11.378 28.444 28.444 28.444h281.6c17.067 0 28.444-11.378 28.444-28.444s-11.378-28.444-28.444-28.444zM594.46 462.222h-281.6c-17.067 0-28.444 11.378-28.444 28.444s11.378 28.444 28.444 28.444h281.6c17.067 0 28.444-11.378 28.444-28.444s-11.378-28.444-28.444-28.444zM506.283 311.467h-193.422c-17.067 0-28.444 11.378-28.444 28.444s11.378 28.444 28.444 28.444h193.422c17.067 0 28.444-11.378 28.444-28.444s-11.378-28.444-28.444-28.444zM670.208 154.396c-71.111 0-130.844 59.733-130.844 130.844s59.733 130.844 130.844 130.844c71.111 0 130.844-59.733 130.844-130.844s-59.733-130.844-130.844-130.844zM670.208 359.196c-39.822 0-73.956-34.133-73.956-73.956s34.133-73.956 73.956-73.956 73.956 34.133 73.956 73.956-34.133 73.956-73.956 73.956zM619.008 77.596c-8.533 0-17.067 2.844-22.756 11.378l-19.911 25.6-31.289 2.844c-8.533 0-19.911 5.689-22.756 14.222s-5.689 19.911 0 28.444l39.822 71.111c8.533 14.222 25.6 19.911 39.822 11.378s19.911-25.6 11.378-39.822l-17.067-31.289c8.533 0 17.067-5.689 19.911-11.378l2.844-2.844 19.911 34.133c8.533 14.222 25.6 19.911 39.822 11.378s19.911-25.6 11.378-39.822l-39.822-73.956c-11.378-5.689-19.911-11.378-31.289-11.378 2.844 0 0 0 0 0zM729.941 77.596c0 0-2.844 0 0 0-11.378 0-19.911 5.689-25.6 14.222l-39.822 73.956c-8.533 14.222-2.844 31.289 11.378 39.822s31.289 2.844 39.822-11.378l19.911-34.133 2.844 2.844c5.689 5.689 11.378 11.378 19.911 11.378l-19.911 31.289c-8.533 14.222-2.844 31.289 8.533 39.822s31.289 2.844 39.822-8.533l42.667-71.111c5.689-8.533 5.689-19.911 0-28.444s-14.222-14.222-22.756-14.222l-31.289-2.844-19.911-25.6c-8.533-14.222-17.067-17.067-25.6-17.067z" />
<glyph unicode="ZSB" glyph-name="ZSB" d="M463.644 516.267l82.489 85.333-213.333 204.8-82.489-85.333 213.333-204.8zM483.556 280.178l-79.644-82.489 65.422-62.578-14.222-14.222-258.844 247.467 14.222 14.222 68.267-65.422 79.644 82.489-216.178 207.644-79.644-82.489 82.489-79.644-88.178-91.022 378.311-361.244 88.178 91.022 82.489-79.644 79.644 82.489-201.956 193.422zM560.356 612.978l76.8 79.644-68.267 65.422 14.222 14.222 258.844-247.467-14.222-14.222-65.422 62.578-76.8-79.644 201.956-193.422 76.8 82.489-82.489 76.8 79.644 82.489-375.467 361.244-79.644-82.489-82.489 79.644-76.8-82.489 213.333-204.8zM369.778 416.711l82.489 85.333-213.333 204.8-82.489-85.333 213.333-204.8zM674.133 479.289l-82.489-85.333 201.956-193.422 82.489 85.333-201.956 193.422zM577.422 379.733l-82.489-85.333 201.956-193.422 82.489 85.333-201.956 193.422z" />
<glyph unicode="SPDB" glyph-name="SPDB" d="M418.133 578.844c-85.333 162.133-301.511 139.378-347.022 0 0 0-5.689-45.511-11.378-91.022v-284.444l139.378-125.156v347.022c-2.844-2.844 11.378 164.978 219.022 153.6v0zM213.333 314.311c0 0 227.556-31.289 236.089 196.267-2.844 213.333 275.911 224.711 352.711 73.956 0 0-199.111-2.844-219.022-162.133 0 0 2.844-196.267-153.6-216.178 0-2.844-170.667-31.289-216.178 108.089v0zM605.867 317.156c85.333-162.133 295.822-136.533 344.178 2.844 0 0 14.222 31.289 17.067 91.022v284.444l-139.378 125.156v-347.022c0 0-14.222-167.822-221.867-156.444v0z" />
<glyph unicode="SHB" glyph-name="SHB" d="M526.222 516.267c116.622 0 219.022-8.533 307.2-25.6 54.044-11.378 96.711-22.756 130.844-36.978l-452.267 452.267-452.267-449.422c39.822 14.222 91.022 25.6 150.756 36.978 93.867 14.222 201.956 22.756 315.733 22.756zM512-4.267l452.267 452.267c-62.578 5.689-150.756 5.689-258.844-2.844-116.622-8.533-193.422-19.911-238.933-34.133-39.822-11.378-59.733-31.289-56.889-51.2 0-5.689 2.844-14.222 8.533-19.911l8.533-5.689c17.067-11.378 25.6-17.067 28.444-19.911 14.222-11.378 19.911-28.444 17.067-48.356-5.689-25.6-56.889-51.2-150.756-79.644l190.578-190.578z" />
<glyph unicode="PSBC" glyph-name="PSBC" d="M139.378 396.8l-5.689-25.6h130.844l5.689 25.6h-130.844zM475.022 371.2l5.689 25.6h-150.756l-5.689-25.6h150.756zM560.356 499.2l-19.911-102.4-28.444-128h-207.644l-5.689-22.756h244.622l31.289 153.6 19.911 102.4h292.978l-22.756-102.4h-233.244l-54.044-256h-298.667l-5.689-22.756h338.489l31.289 150.756 19.911 102.4h196.267l-19.911-102.4h-139.378l-31.289-150.756-22.756-102.4h-455.111l54.044 253.156h-187.733l51.2 230.4h187.733l54.044 253.156h207.644l25.6 128h384l-22.756-102.4h-327.111l-5.689-25.6-19.911-102.4h-207.644l-5.689-22.756h244.622l5.689 22.756 22.756 102.4h292.978l-22.756-102.4h-233.244l-25.6-128h-304.356l-5.689-22.756h207.644v-2.844z" />
<glyph unicode="PAB" glyph-name="PAB" d="M605.867 814.933c-8.533 14.222-19.911 19.911-34.133 19.911h-113.778c-14.222 0-25.6-8.533-34.133-19.911l-358.4-708.267c-11.378-22.756-2.844-36.978 19.911-36.978h113.778c17.067 0 22.756 2.844 31.289 19.911l284.444 568.889 284.444-568.889c8.533-17.067 14.222-19.911 31.289-19.911h113.778c19.911 0 31.289 14.222 19.911 36.978l-358.4 708.267zM628.622 291.556h-196.267c-11.378 0-17.067-8.533-17.067-17.067v-193.422c0-11.378 8.533-17.067 17.067-17.067h196.267c11.378 0 17.067 8.533 17.067 17.067v193.422c0 8.533-8.533 17.067-17.067 17.067z" />
<glyph unicode="ICBC" glyph-name="ICBC" d="M147.911 445.156l2.844-36.978 2.844-34.133 8.533-36.978 11.378-31.289 14.222-34.133 19.911-28.444 8.533-14.222 11.378-11.378 22.756-28.444 56.889-45.511 31.289-19.911 31.289-14.222 34.133-11.378 34.133-8.533 39.822-5.689h73.956l34.133 5.689 36.978 8.533 31.289 11.378 34.133 14.222 28.444 19.911 14.222 8.533 11.378 11.378 28.444 22.756 45.511 56.889 19.911 28.444 14.222 34.133 11.378 31.289 8.533 36.978 2.844 14.222 2.844 19.911v73.956l-5.689 36.978-8.533 34.133-14.222 36.978-14.222 31.289-28.444 45.511-11.378 11.378-22.756 25.6-28.444 25.6-28.444 22.756-28.444 19.911-62.578 22.756-36.978 8.533-17.067 5.689h-19.911l-19.911 2.844h-19.911l-73.956-5.689-34.133-8.533-62.578-28.444-31.289-19.911-14.222-8.533-11.378-11.378-28.444-25.6-22.756-25.6-22.756-28.444-19.911-31.289-14.222-28.444-11.378-34.133-8.533-34.133-2.844-19.911v-19.911l-2.844-19.911v-17.067zM56.889 445.156l2.844 45.511 2.844 25.6 2.844 22.756 19.911 65.422 8.533 19.911 8.533 22.756 11.378 17.067 22.756 36.978 11.378 19.911 14.222 19.911 28.444 31.289 14.222 14.222 14.222 11.378 19.911 14.222 39.822 22.756 17.067 11.378 39.822 19.911 39.822 14.222 22.756 8.533 22.756 5.689 22.756 2.844 25.6 2.844 45.511 2.844 45.511-2.844 45.511-5.689 42.667-11.378 19.911-8.533 22.756-8.533 19.911-8.533 17.067-11.378 39.822-19.911 14.222-11.378 19.911-14.222 31.289-28.444 28.444-28.444 11.378-19.911 25.6-36.978 8.533-19.911 22.756-39.822 14.222-39.822 2.844-22.756 5.689-22.756 2.844-22.756 2.844-25.6 2.844-45.511-2.844-45.511-5.689-42.667-8.533-42.667-5.689-25.6-5.689-22.756-8.533-19.911-14.222-17.067-19.911-39.822-11.378-14.222-11.378-19.911-59.733-59.733-19.911-11.378-19.911-17.067-19.911-11.378-19.911-8.533-36.978-22.756-42.667-14.222-22.756-8.533-68.267-8.533-42.667-2.844-45.511 2.844-25.6 2.844-22.756 2.844-42.667 8.533-22.756 11.378-19.911 5.689-22.756 8.533-17.067 14.222-36.978 22.756-39.822 22.756-45.511 45.511-11.378 14.222-14.222 19.911-14.222 17.067-11.378 19.911-8.533 19.911-19.911 36.978-14.222 42.667-8.533 22.756-5.689 22.756-5.689 42.667-2.844 45.511zM768 416.711v-201.956h-224.711v62.578h153.6v73.956h-153.6v201.956h153.6v68.267h-153.6v68.267h224.711v-201.956h-153.6v-68.267h153.6v-2.844zM256 416.711v-201.956h224.711v62.578h-153.6v73.956h153.6v201.956h-153.6v68.267h153.6v68.267h-224.711v-201.956h153.6v-68.267h-153.6v-2.844z" />
<glyph unicode="HXB" glyph-name="HXB" d="M935.822 715.378l-31.289 42.667c0 0-125.156-19.911-125.156 51.2 0 0 8.533 54.044-82.489 31.289 0 0-22.756 19.911-19.911 31.289 0 0 5.689 31.289-93.867 14.222 0 0-147.911-17.067-307.2-204.8 0 0-162.133-133.689-162.133 2.844 0 0-88.178-91.022-42.667-164.978 0 0 54.044-76.8 156.444-14.222 0 0-31.289-253.156 133.689-386.844 0 0 173.511-162.133 372.622-105.244 0 0 164.978 34.133 230.4 204.8 0 0-28.444-31.289-42.667-28.444 0 0 45.511 54.044 48.356 79.644 0 0 0 31.289-28.444-17.067 0 0 5.689 31.289-11.378 17.067 0 0-88.178-102.4-125.156-108.089 0 0-275.911-164.978-403.911 167.822 0 0-54.044 159.289 73.956 275.911 128 119.467 253.156 108.089 366.933 19.911 0 0 56.889 65.422 82.489 54.044 0 2.844 22.756 17.067 11.378 36.978z" />
<glyph unicode="GDB" glyph-name="GDB" d="M386.844 300.089c45.511 68.267 85.333 139.378 122.311 213.333 51.2 105.244 93.867 213.333 119.467 318.578h-241.778c-62.578-210.489-184.889-420.978-332.8-583.111v0c102.4 28.444 216.178 45.511 332.8 51.2v0zM628.622 832v0c-25.6-105.244-68.267-213.333-119.467-318.578 36.978-73.956 76.8-145.067 122.311-213.333 88.178-5.689 173.511-17.067 253.156-34.133-82.489 17.067-167.822 28.444-253.156 34.133-82.489 5.689-162.133 5.689-244.622 0 0 0 0 0 0 0-116.622-5.689-230.4-22.756-332.8-51.2l119.467-210.489c19.911 19.911 36.978 39.822 56.889 59.733l-2.844-5.689-22.756-22.756-5.689-8.533-5.689-5.689-2.844-5.689-11.378-11.378c213.333 48.356 455.111 48.356 668.444 0l119.467 210.489c-150.756 159.289-273.067 372.622-338.489 583.111zM258.844 126.578l-11.378-11.378-5.689-8.533-8.533-8.533c14.222 14.222 25.6 31.289 36.978 45.511-5.689-5.689-8.533-11.378-11.378-17.067v0zM329.956 220.444c-5.689-8.533-11.378-17.067-19.911-25.6 8.533 8.533 14.222 17.067 19.911 25.6z" />
<glyph unicode="CMBC" glyph-name="CMBC" d="M432.356 308.622l76.8 45.511 5.689-2.844v51.2l-19.911 8.533c0 0-304.356-11.378-278.756 199.111 31.289 85.333 164.978 136.533 298.667 139.378v39.822c-162.133-2.844-392.533-48.356-435.2-196.267-2.844-5.689-2.844-11.378-2.844-14.222v-19.911c8.533-85.333 133.689-182.044 341.333-182.044l-110.933-65.422 199.111-99.556 14.222 5.689v51.2l-2.844-2.844-85.333 42.667zM517.689 749.511v39.822h2.844c150.756 5.689 449.422-51.2 446.578-219.022h-139.378c-19.911 128-164.978 182.044-310.044 179.2v0zM517.689 351.289l82.489-42.667-82.489-42.667v-51.2l210.489 102.4-210.489 85.333v-51.2zM509.156 132.267v-42.667h-2.844c-147.911-2.844-449.422 51.2-449.422 219.022h142.222c19.911-125.156 164.978-182.044 310.044-176.356v0zM509.156 524.8l-82.489 42.667 82.489 45.511v51.2l-207.644-102.4 210.489-88.178v51.2h-2.844zM594.489 567.467l-76.8-45.511h-5.689v-45.511l19.911-8.533c0 0 304.356 11.378 278.756-199.111-34.133-85.333-164.978-136.533-298.667-139.378v-42.667c164.978 5.689 395.378 48.356 438.044 196.267 2.844 5.689 2.844 8.533 2.844 14.222v19.911c-8.533 85.333-136.533 182.044-341.333 184.889l110.933 65.422-196.267 102.4-14.222-8.533v-45.511l82.489-48.356z" />
<glyph unicode="CMB" glyph-name="CMB" d="M475.022 263.111l122.311 312.889 128-312.889h-250.311zM216.178 263.111l122.311 312.889 128-312.889h-250.311zM856.178 334.222h96.711l-5.689-17.067h-82.489l-8.533 17.067zM839.111 379.733h122.311l-2.844-19.911h-110.933l-8.533 19.911zM819.2 422.4h147.911l-2.844-19.911h-136.533l-8.533 19.911zM802.133 467.911h164.978v-19.911h-159.289l-5.689 19.911zM782.222 510.578h179.2l2.844-19.911h-173.511l-8.533 19.911zM765.156 556.089h190.578l2.844-19.911h-184.889l-8.533 19.911zM512 903.111h19.911l19.911-2.844h19.911l17.067-2.844 19.911-2.844 17.067-2.844 34.133-11.378 8.533-5.689 8.533-2.844 17.067-8.533 17.067-5.689 14.222-8.533 34.133-17.067 42.667-34.133 11.378-8.533 14.222-11.378 25.6-25.6 11.378-14.222 11.378-17.067 11.378-14.222 17.067-28.444 25.6-51.2 17.067-51.2h-193.422l-119.467 281.6-125.156-315.733-130.844 312.889-233.244-597.333 105.244-130.844h537.6l99.556 142.222-8.533 22.756h59.733l-5.689-17.067-17.067-34.133-8.533-14.222-8.533-17.067-8.533-14.222-11.378-14.222-8.533-14.222-11.378-14.222-5.689-8.533-45.511-45.511-28.444-22.756-28.444-17.067-51.2-25.6-17.067-5.689-28.444-11.378-17.067-5.689-51.2-8.533h-17.067l-19.911-8.533h-59.733l-68.267 8.533-22.756 5.689-19.911 5.689-22.756 8.533-59.733 25.6-17.067 11.378-19.911 11.378-17.067 11.378-17.067 14.222-17.067 17.067-8.533 5.689-25.6 25.6-14.222 17.067-11.378 17.067-14.222 17.067-17.067 25.6-14.222 28.444-8.533 19.911-17.067 45.511-5.689 19.911-5.689 22.756-5.689 45.511v91.022l5.689 45.511 5.689 22.756 5.689 19.911 14.222 42.667 8.533 19.911 11.378 19.911 11.378 17.067 11.378 19.911 14.222 17.067 11.378 17.067 17.067 17.067 5.689 8.533 25.6 25.6 17.067 14.222 17.067 11.378 17.067 14.222 25.6 17.067 11.378 2.844 19.911 11.378 39.822 17.067 19.911 5.689 22.756 8.533 45.511 11.378 22.756 2.844h45.511z" />
<glyph unicode="CIB" glyph-name="CIB" d="M967.111 436.622c0 113.778-159.289 207.644-352.711 207.644-156.444 0-287.289-59.733-335.644-142.222v0c-5.689-8.533-5.689-17.067-5.689-25.6 0-19.911 14.222-39.822 34.133-51.2l179.2-102.4c8.533-5.689 19.911-8.533 31.289-8.533s22.756 2.844 31.289 8.533l170.667 96.711c11.378 5.689 19.911 17.067 19.911 28.444s-5.689 19.911-17.067 28.444l-62.578 36.978-139.378-79.644-105.244 59.733c39.822 36.978 116.622 59.733 204.8 59.733 130.844 0 236.089-54.044 236.089-122.311-2.844-105.244-159.289-184.889-347.022-179.2s-338.489 93.867-335.644 196.267v0c0 136.533 184.889 247.467 409.6 244.622 19.911 0 39.822 0 59.733-2.844-45.511 17.067-102.4 25.6-164.978 25.6-51.2 0-96.711-5.689-136.533-17.067-170.667-42.667-284.444-142.222-284.444-261.689 0-159.289 204.8-287.289 455.111-287.289s455.111 128 455.111 287.289v0z" />
<glyph unicode="CEB" glyph-name="CEB" d="M173.511 903.111h455.111c0 0 85.333 0 102.4-25.6h-85.333v-25.6l128-2.844c0 0 19.911-14.222 19.911-25.6l-150.756-2.844v-25.6h167.822c0 0 19.911-11.378 14.222-31.289h-514.844v-28.444l526.222 2.844c0 0 2.844-22.756 2.844-28.444h-529.067v-28.444l531.911 2.844c0 0 2.844-17.067-5.689-28.444l-526.222-5.689v-25.6l517.689 2.844c0 0 0-22.756-14.222-28.444l-506.311-2.844v-25.6l489.244 2.844c0 0-2.844-25.6-19.911-31.289l-469.333-2.844v-25.6l432.356 5.689c0 0-8.533-34.133-76.8-28.444l-79.644 2.844v-25.6l130.844-2.844c0 0 54.044 0 62.578-22.756l-193.422-5.689v-25.6h227.556c0 0 19.911-17.067 19.911-25.6l-523.378-2.844v-31.289l534.756 5.689c0 0 19.911-14.222 19.911-31.289l-554.667-2.844v-25.6h563.2c0 0 5.689-8.533 2.844-22.756l-566.044-5.689v-25.6h566.044c0 0 5.689-14.222 0-25.6l-566.044-2.844v-25.6h563.2c0 0 5.689-17.067-8.533-31.289h-551.822v-25.6l543.289 2.844c0 0-2.844-25.6-14.222-28.444h-193.422v-28.444l167.822 2.844c0 0-11.378-25.6-22.756-31.289l-145.067-2.844v-28.444l96.711 2.844c0 0-14.222-31.289-142.222-25.6l-426.667 2.844v904.533z" />
<glyph unicode="CCB" glyph-name="CCB" d="M480.711 857.6c0 0 76.8 59.733 210.489 17.067 0 0 45.511-17.067 96.711-62.578l159.289-167.822-85.333-85.333-244.622 247.467c0 0-42.667 48.356-136.533 51.2v0zM830.578 527.644l-99.556-96.711c0 0-17.067-22.756-28.444 0l-184.889 179.2c0 0-17.067 22.756-28.444 2.844l-184.889-190.578c0 0-11.378-19.911 2.844-28.444l182.044-182.044c0 0 14.222-25.6 28.444-5.689l187.733 190.578c0 0 5.689 17.067 34.133 11.378h193.422c0 0 8.533-196.267-142.222-318.578 0 0-193.422-193.422-457.956-73.956 0 0-256 88.178-253.156 420.978 0 0 5.689 221.867 207.644 341.333 0 0 147.911 110.933 264.533 28.444l278.756-278.756z" />
<glyph unicode="BOC" glyph-name="BOC" d="M508.554 874.274v0c-198.34 6.317-320.332-144.058-320.332-144.058-83.404-99.739-92.838-191.549-92.838-191.549-37.011-154.326 40.113-287.31 40.113-287.31 57.455-104.495 118.063-152.766 216.432-198.671 98.395-45.905 247.912-39.589 340.776 7.122 92.864 46.685 149.518 98.153 201.468 195.5s44.067 211.33 44.067 211.33c-5.505 151.18-99.144 254.090-99.144 254.090-144.814 169.376-330.541 153.546-330.541 153.546zM554.973 779.266c0 0 98.395-7.902 177.87-81.517 79.476-73.589 99.946-147.203 108.604-186.792 8.658-39.563 14.939-152.74-47.996-249.307-62.986-96.567-182.6-140.913-238.479-145.644v155.131h73.996c0 0 78.7 15.83 83.404 98.153v165.425c0 0-12.587 83.102-99.946 87.054h-57.455v157.497zM468.415 779.292v-157.523h-66.113c0 0-89.736-5.537-92.864-105.249v-145.67c0 0 2.352-89.419 95.216-99.713h63.761v-155.131c0 0-155.85 8.708-241.606 159.083 0 0-73.996 106.081-43.292 238.234 30.679 132.205 102.297 185.232 116.487 198.697 14.138 13.439 105.838 68.286 168.411 67.272v0zM410.96 532.325h194.386c0 0 16.515 3.171 18.092-15.024v-135.35c0 0 3.954-21.367-11.812-18.222h-196.738c0 0-15.714-3.951-18.092 14.245v139.327c0 0 2.352 15.024 14.163 15.024v0z" />
<glyph unicode="BOB" glyph-name="BOB" d="M950.044 322.844l11.378 56.889v136.533l-8.533 34.133v11.378l-11.378 45.511-2.844 5.689-2.844 11.378-11.378 22.756-11.378 17.067-2.844 8.533-39.822 59.733-54.044 54.044-17.067 14.222-8.533 8.533-42.667 28.444-14.222 8.533-25.6 17.067-11.378 5.689-34.133 8.533-8.533 2.844-79.644 19.911h-136.533l-34.133-8.533-5.689-2.844-45.511-11.378-5.689-2.844-22.756-5.689-11.378-5.689-17.067-11.378-5.689-5.689-11.378-5.689-17.067-11.378-11.378-8.533-17.067-11.378-17.067-17.067-8.533-5.689-34.133-34.133-5.689-8.533-17.067-17.067-17.067-25.6-8.533-11.378-28.444-42.667-11.378-22.756v-11.378l-11.378-45.511-2.844-5.689-11.378-45.511v-56.889l-2.844-11.378v-68.267l17.067-68.267 5.689-5.689 2.844-11.378 2.844-8.533 2.844-11.378 11.378-22.756 11.378-17.067 2.844-8.533 34.133-51.2 25.6-25.6 8.533-14.222 51.2-51.2 76.8-51.2 22.756-11.378 125.156-31.289h105.244l17.067 2.844 56.889 11.378 85.333 34.133 28.444 17.067 51.2 34.133 45.511 45.511 25.6 51.2v73.956l-5.689 17.067-11.378 22.756v5.689l-14.222 28.444h-8.533l-8.533 8.533-22.756 11.378-2.844 8.533-22.756 11.378-8.533 5.689-5.689 2.844-17.067 5.689-5.689 2.844-17.067 5.689-19.911 8.533 17.067 8.533 22.756 22.756 19.911 39.822v54.044l-2.844 8.533-2.844 5.689-2.844 8.533-5.689 11.378-34.133 34.133-17.067 11.378-5.689 8.533-42.667 28.444h-11.378l-34.133 8.533-5.689 2.844-34.133 8.533-28.444 5.689h-213.333v-142.222l28.444 5.689h170.667l28.444-5.689 34.133-8.533 34.133-11.378 5.689-2.844 28.444-28.444v-28.444l-5.689-11.378-8.533-8.533-5.689-2.844-2.844-2.844h-48.356l-34.133 5.689h-184.889l-28.444-5.689v-145.067l59.733 8.533h145.067l51.2-8.533 28.444-5.689 34.133-8.533 25.6-8.533 11.378-11.378-5.689 2.844 22.756-22.756 2.844-5.689v-45.511l-2.844-2.844-2.844-5.689-11.378-2.844-25.6-25.6h-11.378l-39.822-19.911h-17.067l-11.378-2.844-14.222-2.844h-128l-42.667 14.222-2.844 5.689-8.533 2.844h-5.689l-34.133 11.378-11.378 5.689-5.689 11.378-11.378 11.378-8.533 2.844-11.378 11.378-8.533 2.844-48.356 48.356-2.844 8.533-11.378 11.378-2.844 8.533-5.689 5.689-2.844 8.533-2.844 5.689-8.533 14.222-2.844 8.533-5.689 8.533-2.844 8.533-2.844 5.689-17.067 51.2v136.533l14.222 42.667 2.844-2.844 2.844 8.533 2.844 5.689 14.222 42.667 2.844 5.689 11.378 2.844 11.378 11.378 2.844 8.533 11.378 11.378 2.844 8.533 48.356 48.356 8.533 2.844 11.378 11.378 22.756 11.378 17.067 5.689 5.689 5.689 8.533 2.844 5.689 5.689 8.533 2.844 5.689 2.844 51.2 17.067h136.533l42.667-14.222-2.844-2.844 51.2-17.067 5.689-2.844 8.533-2.844v-11.378l11.378-11.378 8.533-2.844 11.378-11.378 8.533-2.844 68.267-68.267 5.689-11.378 2.844-8.533 2.844-5.689 31.289-93.867v-68.267l-2.844-36.978 8.533-5.689 8.533-2.844 8.533-5.689 68.267-68.267 17.067-5.689z" />
</font>
</defs>
</svg>
